<svg xmlns="http://www.w3.org/2000/svg" version="1.1" xmlns:xlink="http://www.w3.org/1999/xlink" x="0" y="0" viewBox="0 0 960 960" style="enable-background:new 0 0 512 512" xml:space="preserve"><g><g fill="#232833"><path d="M350 296.04s.01.01 0 .01c-13.08 14.56-35.87 12.63-61.49 8.87-.35 6.84-.54 28.19-.89 35.02-5.22-7.52-18.32-7.67-22.2.63-4.67 9.97 5.4 20.99 14.36 19.1-5.45 17.96-31.61 35.2-49.97 41.79-1.33-29.2-3-61.48 1.41-84.87 4.24-22.59 13.83-31.43 23.37-38.28 38.2-27.45 74.3-7.17 82.6-.45 5.83 4.73 10.02 11.17 12.81 18.18zM671.568 441.842a2 2 0 0 1 0-4l113.723-.02a2 2 0 0 1 0 4zM543.134 441.864a2 2 0 0 1 0-4l58.735-.01a2 2 0 0 1 0 4zM838.06 682.893a2 2 0 0 1-2-1.995l-1.468-529.824c-.001-.565.236-1.104.654-1.485s.976-.568 1.541-.511c13.345 1.305 37.822 2.207 46.305 1.357a2.002 2.002 0 0 1 2.199 1.941c2.186 89.208 4.13 177.901 6.01 263.673 1.88 85.771 3.825 174.46 6.01 263.664a2 2 0 0 1-2 2.049h-.008c-19.686-.091-46.538.762-57.174 1.129h-.069zm.538-529.629 1.456 525.561c11.335-.379 34.907-1.096 53.207-1.066-2.165-88.514-4.094-176.507-5.96-261.62-1.866-85.095-3.794-173.066-5.958-261.558-9.607.556-29.747-.178-42.745-1.317z" fill="#232833"></path><path d="M766.656 683.276c-26.176 0-52.558-.101-77.733-.196l-17.362-.065a2 2 0 0 1 .007-4h.007l17.363.065c69.57.264 148.423.564 206.308-1.316a2 2 0 0 1 .13 3.998c-36.995 1.201-82.527 1.514-128.72 1.514zM423.287 446.917h-.04a1.999 1.999 0 0 1-1.96-2.039c.241-12.324.479-24.727.719-37.197 1.607-83.567 3.269-169.979 6.178-255.51a2 2 0 0 1 1.999-1.932c41.435 0 79.576.117 116.461.23 98.042.3 182.712.56 289.91-1.398h.037a2 2 0 0 1 .036 3.999c-107.24 1.958-191.932 1.698-289.996 1.399-36.308-.111-73.832-.227-114.516-.23-2.868 84.874-4.517 170.594-6.111 253.519-.24 12.471-.478 24.875-.719 37.199a2 2 0 0 1-1.999 1.961z" fill="#232833"></path><path d="M492.458 209.848c-1.313 0-2.628-.167-3.912-.52-8.007-2.2-13.387-11.227-11.514-19.317 1.421-6.136 5.288-10.365 10.888-11.909 5.98-1.648 12.877.238 17.16 4.695 4.007 4.17 5.155 9.785 3.233 15.811-2.119 6.643-8.972 11.24-15.856 11.241zm-.136-28.329c-1.136 0-2.263.143-3.339.439-4.119 1.135-6.979 4.315-8.054 8.955-1.388 5.99 2.748 12.929 8.677 14.558 5.931 1.632 13.029-2.221 14.897-8.079 1.455-4.562.636-8.761-2.307-11.823-2.474-2.575-6.223-4.049-9.874-4.049zM498.025 356.046c-1.858 0-3.718-.237-5.533-.735-11.326-3.112-18.936-15.879-16.285-27.322 2.011-8.683 7.468-14.663 15.364-16.839 8.484-2.336 18.264.338 24.337 6.657 5.649 5.879 7.263 13.813 4.543 22.34-2.997 9.396-12.69 15.898-22.426 15.898zm-17.921-27.155c-2.188 9.449 4.096 19.992 13.448 22.562 9.353 2.573 20.142-3.28 23.089-12.521 2.253-7.063.969-13.582-3.617-18.353-5.086-5.292-13.28-7.532-20.39-5.572-6.416 1.768-10.866 6.699-12.531 13.885zM492.255 462.729c-1.858 0-3.718-.237-5.533-.735-11.326-3.112-18.936-15.88-16.285-27.322 2.011-8.682 7.468-14.662 15.364-16.838 8.485-2.339 18.264.337 24.337 6.657 5.65 5.879 7.263 13.813 4.543 22.34-2.997 9.396-12.691 15.899-22.427 15.899zm-17.921-27.155c-2.189 9.449 4.095 19.993 13.448 22.562 9.354 2.573 20.142-3.282 23.089-12.522 2.253-7.063.968-13.582-3.617-18.353-5.085-5.292-13.28-7.531-20.39-5.572-6.416 1.768-10.866 6.699-12.53 13.885zM678.743 547.277a2 2 0 0 1 0-4l109.021-.019a2 2 0 0 1 0 4zM545.607 547.3a2 2 0 0 1 0-4h8.044a1.998 1.998 0 1 1 0 3.998h-8.044zM494.728 568.164c-1.858 0-3.718-.237-5.533-.735-11.326-3.112-18.936-15.879-16.285-27.322 2.011-8.683 7.468-14.663 15.364-16.839 8.484-2.337 18.264.337 24.337 6.657 5.649 5.879 7.263 13.813 4.543 22.34-2.997 9.396-12.69 15.898-22.426 15.898zm-17.921-27.155c-2.189 9.449 4.095 19.992 13.448 22.562s20.141-3.28 23.089-12.521c2.253-7.063.969-13.582-3.617-18.353-5.086-5.292-13.28-7.532-20.39-5.572-6.416 1.768-10.866 6.699-12.53 13.885zM581.343 211.489c-2.521 0-5.002-.564-7.167-1.72-3.24-1.73-5.787-4.687-7.171-8.327-1.952-5.13-1.317-10.966 1.698-15.612 3.013-4.643 8.285-7.809 13.758-8.263 4.724-.394 9.035 1.276 12.164 4.694 2.411 2.633 3.837 6.298 4.015 10.32.267 6.017-2.385 11.928-6.92 15.425-2.974 2.292-6.716 3.481-10.376 3.481zm-9.286-23.48c-2.288 3.526-2.792 8.128-1.315 12.012 1.026 2.697 2.964 4.964 5.317 6.221 3.903 2.083 9.462 1.495 13.218-1.401 3.52-2.714 5.577-7.343 5.366-12.08-.137-3.086-1.191-5.854-2.969-7.796-2.915-3.185-6.439-3.611-8.883-3.409-4.202.349-8.416 2.882-10.734 6.454zM672.433 210.226c-.589 0-1.182-.028-1.777-.086-6.344-.616-12.053-4.477-14.544-9.836-2.532-5.448-1.549-11.95 2.502-16.565 4.151-4.729 11.882-7.41 18.382-6.375 4.835.77 8.472 3.467 10.239 7.593 1.53 3.572 1.677 7.729.448 12.707-.599 2.427-1.719 5.962-4.518 8.62-2.657 2.524-6.576 3.943-10.733 3.943zm-10.813-23.849c-2.96 3.373-3.716 8.292-1.881 12.241 1.876 4.036 6.418 7.066 11.303 7.541 3.607.352 7.197-.713 9.369-2.776 1.551-1.473 2.628-3.595 3.389-6.678 1.013-4.103.934-7.43-.241-10.173-1.547-3.613-4.765-4.832-7.191-5.218-5.153-.822-11.493 1.357-14.747 5.063zM759.596 211.467c-3.45 0-6.951-.405-10.06-2.162-4.809-2.715-7.735-8.477-7.282-14.335.462-5.958 4.964-12.345 11.203-15.895 5.298-3.014 10.947-3.453 15.502-1.202 5.769 2.851 10.168 9.828 10.7 16.966.428 5.744-1.669 10.529-5.903 13.474-3.552 2.47-7.871 2.954-12.008 3.109-.712.027-1.431.044-2.152.044zm3.115-31.013c-2.329 0-4.83.707-7.276 2.098-5.055 2.875-8.834 8.109-9.192 12.728-.331 4.271 1.832 8.607 5.26 10.543 2.893 1.634 6.561 1.739 10.095 1.603 3.53-.132 7.169-.515 9.875-2.396 4.082-2.838 4.382-7.417 4.197-9.893-.425-5.706-3.993-11.458-8.483-13.677-1.36-.672-2.877-1.005-4.475-1.005z" fill="#232833"></path><path d="M507.203 195.682c-.063 0-.127-.003-.192-.009-14.388-1.372-24.553-11.87-24.648-11.976-7.879-8.557-12.861-19.646-14.022-31.218-1.545-15.235 3.812-29.48 14.697-39.08 12.409-10.948 31.065-13.605 45.367-6.459 6.204 3.097 11.696 7.95 15.884 14.035 6.142 8.943 8.996 20.501 7.832 31.71a2 2 0 1 1-3.979-.413c1.068-10.279-1.538-20.861-7.149-29.031-3.804-5.527-8.775-9.927-14.375-12.723-12.883-6.437-29.715-4.019-40.934 5.88-9.906 8.736-14.777 21.741-13.363 35.679 1.075 10.718 5.689 20.987 12.991 28.917 1.818 1.993 10.872 9.627 22.08 10.695a2 2 0 0 1-.188 3.991z" fill="#232833"></path><path d="M592.582 196.681c-21.088 0-36.177-14.192-39.122-20.651-3.241-7.122-4.436-15.341-3.457-23.771 1.1-9.593 4.985-19.291 10.941-27.303 8.168-11.009 19.109-17.699 30.016-18.353 12.888-.771 25.88 6.99 32.313 19.322 4.139 7.917 5.566 17.263 4.125 27.027a2.002 2.002 0 0 1-3.958-.584c1.317-8.923.033-17.426-3.714-24.591-5.627-10.788-17.356-17.867-28.527-17.18-9.724.583-19.581 6.686-27.044 16.745-5.543 7.457-9.158 16.468-10.179 25.376-.896 7.709.185 15.196 3.123 21.654 2.091 4.586 16.636 20.164 39.343 18.136a2 2 0 0 1 .356 3.984 47.675 47.675 0 0 1-4.218.188zM675.448 198.302c-16.252 0-29.118-10.043-32.197-13.426-7.619-8.361-11.389-20.166-10.344-32.386a40.93 40.93 0 0 1 .578-4.37c2.245-12.173 9.268-23.767 19.775-32.638 11.364-9.591 24.573-13.176 35.333-9.589 8.668 2.89 18.974 12.094 21.899 29.262.927 5.471.755 11.449-.511 17.769a2 2 0 0 1-3.922-.786c1.169-5.838 1.334-11.327.489-16.312-1.645-9.649-7.666-22.286-19.221-26.137-9.427-3.142-21.197.167-31.488 8.851-9.801 8.275-16.344 19.042-18.423 30.315a37.048 37.048 0 0 0-.523 3.963c-.938 10.964 2.545 21.937 9.315 29.366 3.203 3.519 20.286 16.464 39.442 10.59a2 2 0 1 1 1.172 3.824 38.652 38.652 0 0 1-11.374 1.705zM766.596 194.778c-12.86 0-24.596-4.247-34.397-12.535-8.841-7.474-14.79-18.212-16.35-29.489a42.187 42.187 0 0 1-.24-9.819c1.414-15.074 11.491-28.804 25.077-34.166 9.454-3.727 20.736-3.604 30.954.334 17.03 6.576 29.353 23.23 30.666 41.442.023.361.044.703.054 1.055a2 2 0 0 1-1.94 2.058c-1.089.017-2.026-.836-2.058-1.94-.009-.308-.028-.606-.047-.904-1.184-16.418-12.745-32.044-28.115-37.979-9.292-3.583-19.516-3.708-28.046-.345-12.218 4.822-21.285 17.206-22.562 30.816-.274 2.946-.2 5.938.219 8.892 1.428 10.319 6.874 20.145 14.941 26.964 11.603 9.811 26.132 13.501 42.046 10.7a2.001 2.001 0 0 1 .693 3.939 62.84 62.84 0 0 1-10.894.976zM853.669 659.99a2 2 0 0 1-2-1.988c-.461-76.002-.533-164.854-.603-250.781-.064-80.082-.132-162.891-.512-235.642a2 2 0 0 1 1.99-2.01h.011a2 2 0 0 1 2 1.99c.38 72.76.448 155.573.512 235.659.07 85.922.142 174.769.603 250.76a2 2 0 0 1-1.988 2.012zM874.5 636.52a2 2 0 0 1-2-1.988c-.46-75.839-1.848-152.484-3.191-226.605-1.289-71.156-2.622-144.734-3.15-218.13a2 2 0 0 1 1.986-2.015h.015a2 2 0 0 1 2 1.985c.528 73.375 1.861 146.942 3.15 218.086 1.343 74.133 2.732 150.79 3.192 226.653a2 2 0 0 1-1.988 2.012h-.013zM739.597 335.181c-23.074 0-48.411-.144-73.262-.286-42.912-.244-87.283-.496-118.879 0h-.032a2 2 0 0 1-.031-4c31.639-.497 76.032-.245 118.964 0 42.919.245 87.3.499 118.902 0 1.063-.034 2.014.865 2.031 1.969a2 2 0 0 1-1.968 2.031c-13.331.209-28.929.286-45.725.286z" fill="#232833"></path></g><g fill="#232833"><path d="m740.826 517.009-9.174 14.849 16.345-1.146z" fill="#232833"></path><path d="M731.652 533.858a2.002 2.002 0 0 1-1.701-3.051l9.174-14.849a2.002 2.002 0 0 1 3.474.124l7.17 13.704a1.999 1.999 0 0 1-1.632 2.922l-16.344 1.146a2.209 2.209 0 0 1-.14.005zm9.031-12.811-5.278 8.542 9.403-.659-4.125-7.884z" fill="#232833"></path></g><path fill="#f3b5c2" d="M727.382 491.312s-4.184-2.41-11.121-6.391c-5.91 7.538-13.537 13.395-20.26 21.078-3 5-5 10-10 14-.547 1.094-1.391 2.19-1.882 3.448 7.08 3.749 13.807 7.226 20.043 10.336 6.253-15.254 13.887-29.489 23.221-42.472zM628.002 434.861c-9.744-5.43-18.735-10.385-26.112-14.358-11.312-6.441-33.455 38.781-23.759 43.614l6.996 4.002c9.594-16.109 25.932-26.581 42.875-33.258z"></path><path fill="#232833" d="M704.159 535.784a2 2 0 0 1-.138-3.995l26.466-1.854c1.135-1.843 2.395-3.875 3.66-5.916 1.522-2.454 3.052-4.921 4.381-7.088l-12.919-24.691a2 2 0 1 1 3.544-1.854l13.445 25.696a2 2 0 0 1-.065 1.97c-1.46 2.39-3.229 5.241-4.986 8.075-1.466 2.365-2.925 4.717-4.19 6.777-.337.55-.92.904-1.564.949l-27.491 1.926a2.245 2.245 0 0 1-.142.005z"></path><path fill="#f3b5c2" d="m405.26 706.98.12 19.7c.11 16.9.24 34.07.35 50.91.16 25.29.29 49.84.3 71.62v4.64c-106.82 18.75-215.21 18.11-324.71 3.73-.33-72.88 3.55-249.48 13.45-321.7 4.54-33.24 14.46-60.7 39.67-82.84 21.61-18.96 55.01-35.61 95.94-38.23 40.03-2.57 80.46-1.48 119.39 7.44 1.14.26 2.3.54 3.47.83 27.97 6.95 61.97 21.9 84.29 39.58 46.68 36.99 77.34 117.42 97.27 192.15 1.4 5.25 2.75 10.47 4.03 15.64-26.206-1.196-85.355 1.073-129.22 54.38-.98-3.78-2.52-10.14-4.35-17.85z"></path><g fill="#232833"><path d="M229.81 403.46a2.004 2.004 0 0 1-1.999-1.909l-.136-2.976c-1.277-27.903-2.725-59.528 1.579-82.355 4.439-23.653 14.803-32.809 24.169-39.534 16.79-12.065 34.961-16.569 54.009-13.387 18.309 3.059 29.77 11.998 31.016 13.007 5.726 4.645 10.232 11.025 13.397 18.963a2.008 2.008 0 0 1-.412 2.178c-13.39 14.834-36.395 13.293-61.018 9.771-.132 3.783-.243 9.599-.352 15.256-.133 6.943-.271 14.122-.447 17.569a2 2 0 0 1-3.64 1.038c-2.244-3.232-6.491-5.088-10.826-4.714-3.678.312-6.565 2.153-7.919 5.051-1.772 3.782-1.13 8.183 1.716 11.772 2.774 3.499 6.865 5.273 10.42 4.523a2.002 2.002 0 0 1 2.327 2.537c-5.804 19.128-33.439 36.714-51.208 43.092a1.991 1.991 0 0 1-.675.118zm66.164-137.035c-12.332 0-26.238 3.464-40.217 13.509-9.136 6.561-18.404 14.822-22.572 37.025-4.218 22.37-2.781 53.749-1.514 81.433l.011.234c24.484-9.502 40.245-26.082 45.126-36.781-4.036-.3-8.104-2.523-10.996-6.17-3.809-4.804-4.633-10.768-2.204-15.953 1.948-4.166 6.136-6.911 11.204-7.341 3.972-.335 7.914.768 10.973 2.937.101-3.627.191-8.326.28-12.921.133-6.945.271-14.127.447-17.579a2 2 0 0 1 2.288-1.877c24.728 3.63 46.26 5.568 58.864-7.323-2.875-6.77-6.818-12.217-11.734-16.205-6.255-5.064-21.304-12.988-39.956-12.988z" fill="#232833"></path><path d="M353.24 425.075h-.039a1.996 1.996 0 0 1-1.961-1.995c1.073-27.924 1.783-60.923 1.9-88.358.03-10.325-.142-20.406-2.542-30.206a60.121 60.121 0 0 0-1.392-4.83c-13.626 12.421-35.484 10.865-58.79 7.531-.132 3.783-.243 9.599-.352 15.256-.133 6.943-.271 14.122-.447 17.569a2 2 0 0 1-3.64 1.038c-2.244-3.232-6.491-5.088-10.826-4.714-3.678.312-6.565 2.153-7.919 5.051-1.772 3.782-1.13 8.183 1.716 11.772 2.774 3.498 6.865 5.275 10.42 4.523a2 2 0 0 1 2.327 2.537c-5.655 18.637-32.033 35.809-49.819 42.578.184 4.041.352 8.016.503 11.903a2 2 0 0 1-3.997.157c-.17-4.346-.359-8.801-.569-13.336a2 2 0 0 1 1.322-1.975c25.938-9.31 42.626-26.667 47.674-37.733-4.036-.3-8.104-2.523-10.996-6.17-3.809-4.804-4.633-10.768-2.204-15.953 1.948-4.166 6.136-6.911 11.204-7.341 3.972-.335 7.914.768 10.973 2.937.101-3.627.191-8.326.279-12.921.133-6.945.271-14.127.448-17.579a2 2 0 0 1 2.288-1.877c25.291 3.713 47.24 5.655 59.712-8.228a2 2 0 0 1 1.488-.664c.821 0 1.569.502 1.87 1.266a63.48 63.48 0 0 1 2.613 8.251c2.506 10.227 2.686 21.005 2.657 31.169-.117 27.481-.828 60.531-1.901 88.411a2.004 2.004 0 0 1-1.998 1.928zM533.446 845.239c-5.554 0-11.25-.392-17.092-1.176-66.606-8.96-95.864-69.511-108.68-118.729a2 2 0 1 1 3.871-1.007c12.507 48.032 40.935 107.107 105.341 115.772 30.045 4.037 56.167-2.688 77.629-19.988 64.241-51.786 75.105-186.757 80.942-259.269.509-6.326.982-12.202 1.45-17.536 1.96-22.357 20.246-40.985 31.171-52.115.762-.776 1.49-1.518 2.177-2.224 5.088-5.246 5.266-11.723.474-17.326-5.657-6.611-19.473-.43-25.987 3.762a2.001 2.001 0 0 1-2.212-3.332c1.786-1.222 3.224-2.455 4.396-3.771 3.402-3.819 4.753-8.761 3.44-12.59-1.98-5.744-9.261-8.072-15.15-7-.286.059-.597.127-.909.196-5.726 1.393-12.868 4.377-21.791 9.113a2 2 0 0 1-1.927-3.505c5.658-3.223 11.764-8.262 11.8-11.713.043-3.875-3.262-7.071-6.352-8.402-3.968-1.691-8.669-1.517-12.323-1.176a41.094 41.094 0 0 0-4.095.583 1.924 1.924 0 0 1-.192.048c-17.56 3.482-33.694 12.963-46.659 27.416-15.131 16.868-25.902 40.068-32.014 68.956-.951 4.846-2.524 12.513-4.346 21.39-6.347 30.935-15.939 77.684-19.631 103.479a2 2 0 0 1-3.96-.566c3.709-25.915 13.315-72.735 19.673-103.716 1.819-8.869 3.391-16.528 4.345-21.386 6.264-29.611 17.35-53.432 32.955-70.828 13.5-15.05 30.322-24.946 48.662-28.629.063-.02.127-.036.193-.049a45.258 45.258 0 0 1 4.696-.68c4.121-.387 9.468-.566 14.271 1.481 4.417 1.904 8.839 6.388 8.776 12.122-.018 1.726-.711 3.434-1.788 5.051 3.217-1.281 6.139-2.238 8.805-2.886.373-.083.701-.154 1.05-.226 7.598-1.385 17.011 1.849 19.693 9.627 1.346 3.927.78 8.459-1.434 12.567 7.563-2.788 16.12-3.702 21.053 2.064 6.088 7.118 5.835 16.033-.644 22.713-.692.712-1.425 1.458-2.192 2.24-10.55 10.747-28.207 28.734-30.042 49.663-.467 5.325-.939 11.191-1.447 17.507-5.885 73.111-16.839 209.198-82.419 262.062-18.162 14.641-39.494 22.014-63.58 22.015z" fill="#232833"></path></g><path fill="#232833" d="M342.657 349.387a2 2 0 0 1-1.999-1.978l-.142-12.656a2 2 0 0 1 1.977-2.022c1.083.002 2.01.873 2.022 1.978l.142 12.656a2 2 0 0 1-1.977 2.022zM308.908 349.5a2 2 0 0 1-1.999-1.963l-.248-12.801a2 2 0 0 1 1.963-2.036c1.101-.036 2.016.858 2.037 1.963l.248 12.801a2 2 0 0 1-1.963 2.036h-.038zM326.537 393.117c-4.948 0-9.939-2.001-13.746-5.595-4.046-3.82-6.695-9.432-7.266-15.396a2 2 0 0 1 3.982-.382c.48 5.014 2.678 9.705 6.03 12.87 3.53 3.333 8.502 5.006 12.977 4.364a2 2 0 0 1 .567 3.96c-.842.121-1.693.18-2.544.18zM626.33 476.506a2 2 0 0 1-1.315-3.508c8.913-7.771 15.897-13.251 25.22-18.272l.827-.442a2 2 0 1 1 1.84 3.552l-.36.193c-.146.079-.291.158-.439.234-8.964 4.828-15.759 10.166-24.458 17.75a1.991 1.991 0 0 1-1.313.493zM656.335 499.81a2 2 0 0 1-1.67-3.097c8.081-12.312 25.936-23.471 27.945-24.703a2 2 0 1 1 2.09 3.41c-7.008 4.296-20.516 14.078-26.692 23.487a1.998 1.998 0 0 1-1.674.903z"></path><path fill="#232833" d="M224.078 405.236a2 2 0 0 1-.49-3.94c9.341-2.364 21.487-8.385 31.698-15.713 10.703-7.682 18.243-16.004 21.569-23.737-4.049-.286-8.135-2.51-11.037-6.167-3.812-4.804-4.639-10.768-2.213-15.954 1.95-4.169 6.142-6.914 11.213-7.343 3.97-.342 7.909.77 10.967 2.938.102-3.628.192-8.327.281-12.921.134-6.947.272-14.131.448-17.583a1.998 1.998 0 0 1 2.288-1.876c22.187 3.262 43.175 5.343 56.13-4.863 8.132-6.405 12.792-17.309 14.246-33.335a1.993 1.993 0 0 1 2.172-1.811 2 2 0 0 1 1.811 2.172c-1.559 17.18-6.712 28.994-15.754 36.116-13.754 10.833-34.719 9.192-56.99 5.997-.132 3.784-.244 9.601-.353 15.26-.134 6.943-.272 14.122-.448 17.571a2 2 0 0 1-3.641 1.037c-2.241-3.231-6.486-5.084-10.82-4.717-3.682.312-6.571 2.153-7.927 5.052-1.769 3.782-1.125 8.184 1.724 11.773 2.774 3.496 6.864 5.271 10.418 4.519a1.998 1.998 0 0 1 2.327 2.537c-3.625 11.944-15.095 22.137-24.079 28.584-10.591 7.601-23.255 13.863-33.049 16.342-.165.042-.33.062-.492.062zM547.422 709.175a2 2 0 0 1-1.952-1.574 1233.738 1233.738 0 0 0-8.567-36.668 2 2 0 1 1 3.88-.972 1234.738 1234.738 0 0 1 8.595 36.787 2 2 0 0 1-1.956 2.426zM409.612 726.833a2 2 0 0 1-1.934-1.497c-3.813-14.65-15.984-68.025-20.566-88.118-.976-4.279-1.622-7.115-1.794-7.849a2 2 0 0 1 3.895-.911c.172.736.821 3.58 1.799 7.871 4.578 20.077 16.739 73.409 20.537 88a2 2 0 0 1-1.937 2.504z"></path></g></svg>