<svg xmlns="http://www.w3.org/2000/svg" version="1.1" xmlns:xlink="http://www.w3.org/1999/xlink" x="0" y="0" viewBox="0 0 960 960" style="enable-background:new 0 0 512 512" xml:space="preserve"><g><path fill="#f3b5c2" d="M257.23 649.01c1.24 33.2 9.27 61.91 32.19 64.8 44.22 5.57 53.87-184.39 53.03-221.38-1.22-54-9.73-101.68-10.07-107.9-.04-.73-.06-1.44-.05-2.12-188.84 63.94-200.12 153.1-205.79 225.13-1.04 13.32-1.63 25.92-1.78 37.83h.15M597.555 612.285c3.17 31.68 5.95 63.03 8.26 93.98v.01c-63.67 30.53-128.79 47.05-185.28 51.6 50.14-100.53 33.87-254.81 44.94-266.86 16.88-18.37 24.01-21.95 27.17-30.13 2.88-7.43 0-18.59-8.33-19.83-6.86-1.03-11.97 2.9-17.87 6.79 15.04-13.33 14.7-26.31 10.3-31.13-4.97-5.44-14.96-11.09-28.33-.33 21.38-20.2 28.64-36.51 28.14-47.42 161.32-15.96 224.75 101.72 249.7 198.7-40.07 22.96-87.66 36.93-128.69 44.62z"></path><g fill="#232833"><path d="M341.877 366.88a2 2 0 0 1-1.985-1.772c-.065-.569-.122-1.138-.178-1.699l-.015-.149a1.996 1.996 0 0 1 .854-1.845c4.536-3.133 19.005-14.31 22.834-31.552-3.754.255-7.787-1.236-10.94-4.181-4.19-3.911-5.784-9.312-4.265-14.449 1.226-4.137 4.727-7.265 9.363-8.368 3.527-.841 7.219-.412 10.299 1.07-.404-3.304-.954-7.512-1.491-11.629-.831-6.367-1.691-12.952-2.004-16.129a1.999 1.999 0 0 1 1.983-2.196c25.411-.091 53.548-1.575 65.799-18.13a2 2 0 0 1 1.6-.811h.008c.628 0 1.22.295 1.598.798 2.707 3.599 5.012 7.701 6.853 12.194 3.729 9.097 5.368 18.928 6.728 28.218 2.977 20.331 5.067 41.142 6.388 63.623l.003.117a2.005 2.005 0 0 1-2 2.005 1.996 1.996 0 0 1-1.999-1.927c-1.314-22.35-3.392-43.034-6.35-63.238-1.323-9.046-2.914-18.603-6.471-27.281-1.359-3.318-2.986-6.4-4.852-9.195-13.614 15.582-40.363 17.438-65.07 17.615.401 3.475 1.086 8.717 1.752 13.819.834 6.389 1.697 12.996 2.011 16.187a1.999 1.999 0 0 1-3.447 1.567c-2.459-2.612-6.547-3.703-10.413-2.785-3.275.779-5.627 2.825-6.454 5.612-1.08 3.65.101 7.535 3.159 10.39 2.98 2.781 6.912 3.834 10.015 2.678a1.999 1.999 0 0 1 2.677 2.164c-2.827 19.303-18.064 32.073-24.072 36.419.022.211.045.423.07.634a2 2 0 0 1-1.99 2.228zM378.68 412.55h-.01a2 2 0 0 1 0-4c1.104 0 2.005.896 2.005 2s-.89 2-1.995 2z" fill="#232833"></path><path d="M365.886 327.307c-7.945 2.968-18.68-5.738-15.784-15.506 2.411-8.131 14.426-9.805 20.242-3.632-.622-6.309-3.386-25.884-4.007-32.193 25.328-.086 54.425-1.394 67.4-18.932-3.038-4.037-6.711-7.544-11.061-10.103-8.514-5.014-24.171-7.473-34.03-7.126-26.309.916-35.938 11.979-41.535 18.915-6.823 8.46-12.636 21.645-11.294 36.109 2.292 24.488 3.305 42.731 5.875 68.223 9.792-6.756 21.825-19.567 24.194-35.754z" fill="#232833"></path><path d="M341.691 365.061a2 2 0 0 1-1.989-1.8c-1.431-14.196-2.399-26.381-3.334-38.165-.75-9.446-1.526-19.215-2.542-30.071-1.199-12.921 3.186-26.958 11.728-37.552 5.271-6.53 15.082-18.685 43.023-19.657 10.462-.368 26.455 2.302 35.115 7.402 4.346 2.558 8.264 6.132 11.644 10.623.532.707.536 1.68.01 2.392-12.978 17.542-40.991 19.551-66.78 19.731.403 3.482 1.09 8.735 1.759 13.849.834 6.379 1.697 12.974 2.011 16.16a2 2 0 0 1-3.446 1.568c-2.462-2.612-6.551-3.708-10.415-2.785-3.275.779-5.627 2.826-6.454 5.614-1.083 3.652.098 7.537 3.159 10.393 2.98 2.78 6.908 3.832 10.008 2.671.662-.245 1.406-.126 1.957.318s.825 1.146.722 1.846c-2.996 20.473-19.921 33.58-25.037 37.11-.34.234-.737.354-1.136.354zm48.918-123.279c-.65 0-1.281.011-1.894.032-26.115.909-35.18 12.139-40.049 18.171-7.904 9.802-11.963 22.762-10.858 34.669 1.019 10.883 1.796 20.665 2.547 30.126.856 10.783 1.739 21.903 2.98 34.584 6.022-4.721 16.821-14.944 20.049-29.501-3.75.254-7.781-1.233-10.935-4.176-4.194-3.913-5.788-9.316-4.265-14.454 1.227-4.137 4.727-7.266 9.363-8.369 3.527-.839 7.219-.411 10.3 1.07-.404-3.298-.953-7.495-1.49-11.602-.834-6.379-1.697-12.974-2.011-16.16a1.999 1.999 0 0 1 1.983-2.196c24.791-.084 52.174-1.492 64.871-16.933-2.836-3.505-6.04-6.319-9.539-8.378-7.534-4.438-21.224-6.884-31.052-6.884zM407.854 355.242c-6.555 0-14.408-2.832-16.994-11.646a2 2 0 0 1 3.838-1.125c2.831 9.649 13.698 9.199 17.281 8.282a2.001 2.001 0 0 1 .993 3.875c-1.501.385-3.258.613-5.119.613z" fill="#232833"></path><path d="M392.408 312.273c-2.652 0-5.286-.898-7.371-2.568a2 2 0 0 1 2.501-3.122c1.769 1.417 4.246 2.003 6.462 1.521 2.216-.479 4.23-2.033 5.256-4.056a1.999 1.999 0 1 1 3.566 1.81 11.84 11.84 0 0 1-7.977 6.155 11.53 11.53 0 0 1-2.439.259zM424.552 306.05c-2.651 0-5.286-.898-7.371-2.567a2.001 2.001 0 0 1 2.5-3.124c1.77 1.418 4.246 2.003 6.462 1.521 2.216-.479 4.23-2.033 5.256-4.056a1.999 1.999 0 1 1 3.566 1.81 11.842 11.842 0 0 1-7.977 6.155c-.804.174-1.621.259-2.438.259zM217.38 833.611a1.99 1.99 0 0 1-.698-.127c-64.459-24.039-95.181-85.579-93.921-188.139a2 2 0 0 1 2-1.976h.15a2 2 0 0 1 1.841 2.782c-1.079 100.213 28.799 160.266 91.327 183.584a2 2 0 0 1-.699 3.875zM421.119 759.29a2 2 0 0 1-1.788-2.893c33.716-67.6 37.271-160.667 39.395-216.272 1.202-31.476 1.954-46.794 5.862-51.048 6.632-7.219 11.684-12.085 15.743-15.995 5.976-5.758 9.268-8.929 11.034-13.503 1.548-3.992 1.161-9.301-.938-12.911-.973-1.675-2.773-3.767-5.821-4.22-5.519-.833-9.903 2.099-14.981 5.488-.493.329-.99.661-1.494.993a2 2 0 0 1-2.428-3.167c10.179-9.021 12.044-16.882 12.25-20.765.166-3.135-.599-5.876-2.1-7.52-4.074-4.459-12.819-10.407-25.599-.12a2 2 0 0 1-2.627-3.013c24.716-23.353 27.848-38.776 27.516-45.892-.273-6.122-3.331-10.658-8.389-12.448-3.559-1.263-7.134.332-11.954 5.323-3.238 3.361-6.596 7.814-10.483 12.97-5.352 7.098-11.419 15.143-18.854 22.448a96.424 96.424 0 0 1-7.976 7.045c-7.139 5.604-15.703 9.305-24.116 10.42-7.614 1.009-14.21-.226-17.645-3.303-4.844-4.339-7.936-8.393-10.672-13.99-2.435-5.012-4.668-11.454-7.243-20.893-1.507-5.532-5.876-10.052-9.947-10.289-1.204-.069-3.08.04-5.184.972-3.1 1.345-8.287 5.165-8.349 15.713-.009.61.007 1.258.047 2 .072 1.311.575 4.906 1.272 9.884 2.549 18.203 7.852 56.08 8.801 98.079.411 18.116-1.606 65.547-7.244 109.814-7.491 58.817-18.612 95.248-33.054 108.28-4.647 4.193-9.688 5.98-14.981 5.314-20.966-2.644-32.384-25.088-33.938-66.71-1.321-35.1 4.183-86.042 4.239-86.552a2 2 0 0 1 3.976.434c-.055.508-5.528 51.163-4.218 85.969 1.47 39.37 11.712 60.529 30.442 62.891 4.144.522 8.004-.89 11.801-4.315 13.519-12.198 24.504-48.789 31.766-105.815 5.612-44.065 7.622-91.223 7.213-109.219-.944-41.767-6.225-79.487-8.763-97.615-.737-5.264-1.224-8.741-1.305-10.221a32.939 32.939 0 0 1-.052-2.259c.079-13.278 7.54-17.946 10.744-19.336 2.232-.986 4.665-1.437 7.022-1.302 6.651.39 11.862 6.951 13.573 13.231 2.507 9.188 4.659 15.416 6.979 20.191 2.911 5.954 6.001 9.41 9.746 12.765 5.084 4.552 22.283 3.971 36.62-7.284a92.351 92.351 0 0 0 7.643-6.752c7.224-7.099 13.196-15.018 18.464-22.004 3.801-5.04 7.391-9.802 10.798-13.338 4.035-4.179 9.518-8.669 16.167-6.318 6.674 2.362 10.701 8.207 11.051 16.037.524 11.216-6.476 25.16-19.914 39.979 10.201-2.393 17.23 3.956 19.583 6.531 2.219 2.43 3.363 6.23 3.141 10.428-.16 3.033-1.156 8.126-5.226 14.177 2.591-.938 5.354-1.361 8.476-.894 3.654.544 6.659 2.676 8.688 6.165 2.711 4.663 3.198 11.24 1.21 16.365-2.085 5.397-5.603 8.787-11.99 14.939-4.02 3.873-9.023 8.693-15.573 15.821-3.086 3.359-3.885 24.275-4.81 48.494-2.136 55.928-5.712 149.534-39.813 217.905a1.999 1.999 0 0 1-1.791 1.107z" fill="#232833"></path><path d="M366.852 398.04a1.999 1.999 0 0 1-1.8-1.126c-2.433-5.007-4.666-11.449-7.241-20.888-1.507-5.532-5.876-10.052-9.948-10.289-1.205-.071-3.08.041-5.184.972-3.1 1.345-8.287 5.165-8.349 15.713a2 2 0 0 1-2 1.988h-.012a2 2 0 0 1-1.988-2.012c.079-13.296 7.54-17.964 10.744-19.354 2.231-.987 4.663-1.436 7.022-1.302 6.65.39 11.862 6.951 13.573 13.231 2.507 9.188 4.659 15.416 6.979 20.191a2 2 0 0 1-1.798 2.874zM424.06 397.32a2 2 0 0 1-1.402-3.427c7.223-7.098 13.195-15.017 18.463-22.003 3.801-5.041 7.391-9.802 10.798-13.338a2 2 0 1 1 2.88 2.775c-3.24 3.362-6.597 7.815-10.485 12.971-5.352 7.098-11.419 15.143-18.854 22.448a1.992 1.992 0 0 1-1.402.573zM688.348 287.741c-14.573 0-29.325-3.269-41.94-9.337-14.395-6.925-25.654-17.189-32.67-29.758-19.3 7.729-44.287 1.888-57.685-13.739-13.87-16.177-15.563-41.844-3.939-59.703 10.737-16.497 32.169-25.3 51.458-21.714-3.191-6.705-3.504-14.688-.676-21.809 3.403-8.567 11.462-15.164 20.533-16.806 7.516-1.36 15.574.709 21.637 5.346.73-16.842 9.527-32.636 23.218-41.131 14.356-8.909 33.604-9.419 51.488-1.364 19.925 8.973 26.493 32.756 23.105 52.411 18.544-10.004 38.288-10.927 56.039-2.511 20.151 9.554 34.664 30.333 37.875 54.228 2.918 21.717-7.535 45.224-26.631 59.889-16.85 12.94-36.882 16.315-55.259 9.395-10.059 21.721-33.301 35.326-62.62 36.523a97.17 97.17 0 0 1-3.933.08zm-73.717-43.648c.724 0 1.42.395 1.775 1.076 14.655 28.129 48.583 39.621 75.711 38.495 28.528-1.164 50.916-14.574 59.889-35.871a2 2 0 0 1 2.612-1.07c17.508 7.292 36.864 4.32 53.105-8.152 17.98-13.808 27.833-35.86 25.103-56.183-3.033-22.568-16.683-42.166-35.624-51.146-17.753-8.417-37.704-6.789-56.178 4.583a2.001 2.001 0 0 1-2.984-2.206c4.879-18.783-.441-43.477-19.911-52.245-16.667-7.505-34.513-7.089-47.736 1.116-13.729 8.52-22.101 25.077-21.327 42.185a2 2 0 0 1-3.481 1.432c-5.283-5.832-13.701-8.698-21.444-7.295-7.743 1.401-14.623 7.033-17.528 14.347-2.949 7.427-1.907 15.935 2.72 22.204a2 2 0 0 1-2.185 3.103c-18.772-5.641-40.99 2.494-51.682 18.921-10.692 16.428-9.135 40.038 3.623 54.918 12.706 14.819 36.741 20.076 54.72 11.966.266-.12.546-.177.821-.177zM509.939 342.488a17.45 17.45 0 0 1-6.097-1.081c-8.996-3.35-14.085-14.166-10.892-23.147 2.355-6.622 7.568-11.033 14.304-12.104 7.105-1.124 14.654 1.713 18.781 7.069 3.851 4.998 4.349 11.434 1.401 18.121-3.013 6.835-10.235 11.142-17.498 11.142zm-13.22-22.889c-2.447 6.881 1.614 15.488 8.518 18.06 6.885 2.565 15.549-1.14 18.54-7.926 2.986-6.775 1.154-11.389-.91-14.066-3.261-4.23-9.283-6.469-14.986-5.56-3.082.489-8.631 2.373-11.162 9.492zM576.147 315.031c-4.561 0-9.118-1.27-12.92-3.831-8.02-5.404-11.973-16.094-9.4-25.417 2.439-8.836 10.79-16.051 19.857-17.156 13.486-1.641 21.602 7.481 24.456 15.798 3.14 9.148-.152 20.06-7.826 25.945-4.037 3.097-9.105 4.66-14.167 4.661zm.664-42.598c-.851 0-1.731.053-2.643.164-7.405.902-14.492 7.028-16.485 14.25-2.13 7.716 1.142 16.562 7.78 21.036 6.638 4.473 16.066 4.183 22.417-.688 6.352-4.871 9.076-13.901 6.477-21.473-2.279-6.64-8.033-13.29-17.546-13.29zM268.37 858.765c-8.077 0-15.622-1.076-22.515-3.218l-.833-.262a2 2 0 1 1 1.238-3.803l.808.253c8.67 2.692 18.508 3.6 29.216 2.684a2 2 0 0 1 .34 3.986 97.339 97.339 0 0 1-8.254.359zM261.472 825.93c-11.619 0-23.601-2.895-25.268-3.312a2 2 0 0 1-1.454-2.426 2.006 2.006 0 0 1 2.426-1.455c7.444 1.865 22.792 4.478 33.1 2.442a1.996 1.996 0 0 1 2.349 1.575 2 2 0 0 1-1.575 2.349c-2.999.592-6.275.826-9.578.826zM606.4 707.688a2 2 0 0 1-.867-3.804 568.072 568.072 0 0 0 11.48-5.666 2 2 0 1 1 1.811 3.566 578.902 578.902 0 0 1-11.562 5.707 1.986 1.986 0 0 1-.863.196z" fill="#232833"></path><path d="M336.719 368.094a2 2 0 0 1-.929-3.772c8.064-4.218 23.633-16.625 27.593-34.459-3.746.258-7.781-1.233-10.934-4.177-4.193-3.912-5.788-9.315-4.265-14.452 1.226-4.138 4.727-7.267 9.363-8.37 3.527-.839 7.219-.411 10.3 1.07-.404-3.297-.953-7.495-1.49-11.602-.834-6.379-1.697-12.975-2.011-16.16a1.999 1.999 0 0 1 1.983-2.196c23.813-.08 50.326-1.345 63.554-15.422 6.521-6.94 9.338-16.316 8.611-28.664a1.998 1.998 0 0 1 1.879-2.113c1.109-.079 2.049.775 2.114 1.879.784 13.316-2.476 23.961-9.689 31.638-13.887 14.778-40.175 16.506-64.234 16.671.403 3.482 1.09 8.736 1.759 13.849.834 6.379 1.697 12.975 2.011 16.16a2 2 0 0 1-3.446 1.568c-2.462-2.611-6.55-3.707-10.414-2.785-3.275.779-5.628 2.826-6.455 5.615-1.083 3.651.098 7.536 3.158 10.392 2.98 2.78 6.908 3.832 10.008 2.671.662-.245 1.406-.126 1.957.318s.825 1.146.722 1.846c-3.067 20.954-21.109 35.504-30.221 40.27a2.001 2.001 0 0 1-.925.228zM321.767 887.934c-38.884 0-77.134-5.41-84.506-8.204-8.041-3.044-11.029-5.758-13.322-12.1-1.724-4.773-.162-11.923 3.343-15.301 1.099-1.053 2.569-1.703 4.218-2.068-2.8-1.253-5.236-2.526-7.336-3.832-.114-.072-9.274-6.035-8.781-14.93.087-1.766.569-3.535 1.431-5.248 1.918-3.846 5.468-6.11 9.094-7.227-6.251-2.966-12.839-7.903-12.19-15.407.78-8.801 6.951-14.513 15.723-14.557 2.004-.011 4.464.026 7.312.066 14.855.209 45.765.645 51.452-6.765 1.183-1.541.985-2.338.92-2.6-.569-2.284-5.701-4.624-10.229-6.689-5.418-2.471-11.021-5.025-14.034-8.969-3.861-5.056-3.937-9.436-3.321-12.22.954-4.312 4.224-8.215 8.971-10.705 3.6-1.887 9.065-2.285 16.706-1.22.008 0 .015.002.022.003 1.715.239 3.525.547 5.38.915 1.22.244 2.458.508 3.705.792 1.242.283 2.494.586 3.757.898l.106.027.181.046c.537.136 1.081.273 1.616.419.182.045.405.101.639.168l.106.027c.75.198 1.508.399 2.257.607 4.073 1.124 8.091 2.325 11.484 3.353 28.189 8.521 64.322 11.314 104.49 8.081 60.411-4.866 123.777-22.434 183.344-50.822-1.807-23.902-4.191-47.272-6.711-71.99-.677-6.633-1.356-13.297-2.027-20.001-.058-.614-5.702-60.601-9.22-90.44a2 2 0 0 1 1.752-2.221 2.006 2.006 0 0 1 2.22 1.752c3.523 29.887 9.172 89.92 9.229 90.522.669 6.69 1.349 13.352 2.025 19.982 2.571 25.211 5 49.024 6.823 73.452a2.013 2.013 0 0 1-1.129 1.961c-60.361 28.943-124.673 46.853-185.984 51.79-40.663 3.276-77.306.425-105.969-8.239-3.37-1.02-7.359-2.213-11.394-3.326-.737-.205-1.478-.4-2.212-.595l-.148-.039c-.228-.065-.405-.109-.582-.153-.553-.149-1.074-.281-1.589-.411l-.199-.051-.054-.014a92.528 92.528 0 0 0-12.529-2.544c-6.662-.92-11.452-.648-14.238.81-3.646 1.913-6.234 4.914-6.923 8.027-.63 2.846.243 5.849 2.594 8.928 2.404 3.147 7.775 5.597 12.514 7.758 6.125 2.793 11.416 5.205 12.451 9.361.484 1.944-.063 3.964-1.628 6.002-6.376 8.306-30.51 8.668-54.681 8.328-2.828-.04-5.271-.073-7.237-.065-6.759.034-11.155 4.11-11.756 10.906-.691 7.992 12.41 13.152 19.435 14.764a2 2 0 0 1-.843 3.91c-1.949-.394-3.701-.548-5.363-.473-4.736.231-8.876 2.537-10.542 5.875-.621 1.234-.951 2.432-1.012 3.665-.359 6.476 6.857 11.296 6.93 11.344 4.745 2.95 11.465 5.772 20.511 8.61a2 2 0 0 1-1.152 3.83c-4.915-1.416-13.128-2.656-15.613-.278-2.373 2.287-3.54 7.767-2.352 11.057 1.748 4.836 3.58 6.919 10.977 9.719 7.802 2.956 54.876 9.236 96.869 7.701 4.873-.179 10.492-.32 16.998-.484 50.377-1.271 144.148-3.639 235.186-32.244 47.597-14.947 92.413-37.754 114.174-58.103 15.1-14.118 40.256-47.097 39.086-109.341-.332-17.352-2.564-63.384-16.087-115.94a2 2 0 0 1 3.874-.997c13.628 52.964 15.878 99.368 16.213 116.86.405 21.548-2.568 42.603-8.598 60.888-6.883 20.874-17.567 38.185-31.756 51.451-22.165 20.727-67.582 43.884-115.707 58.997-91.574 28.773-185.71 31.149-236.284 32.426-6.493.164-12.102.306-16.952.484-4.616.168-9.277.245-13.927.245z" fill="#232833"></path></g></g></svg>