<svg viewBox="0 0 150 133" fill="none" xmlns="http://www.w3.org/2000/svg">
<g clip-path="url(#clip0_19_2)">
<path d="M149.277 80.9955C148.634 85.0307 147.53 89.0143 146.099 92.8183C135.549 92.2038 125.114 89.6638 115.462 85.3609C112.185 95.5271 102.313 102.527 91.9156 104.972C81.5181 107.418 70.6136 105.998 60.1482 103.861L62.045 78.5328L59.8604 81.5316C59.9177 81.4484 56.828 78.6857 56.5434 78.4185L53.1587 75.2418L46.3893 68.8885L39.6198 62.5351C39.274 62.2106 38.4176 61.6584 38.6821 61.0834C38.9024 60.6048 39.9036 60.2144 40.3449 59.9635C41.566 59.2693 42.8375 58.6702 44.0998 58.0561C45.0602 57.589 46.0178 57.114 46.9455 56.5839C54.9332 52.0182 60.3021 43.1785 60.6709 33.9854L62.5606 30.9347C65.696 28.7819 69.5443 27.6008 73.3636 27.2188C78.7077 26.6843 84.0822 26.3937 89.3841 27.2514C89.4221 29.8565 92.8383 31.6868 95.3844 32.2395C98.1354 32.8368 101.151 33.4633 103.953 33.1852C106.754 32.9071 109.836 32.2008 110.643 29.8241C118.477 32.4013 126.124 35.7892 132.728 40.7281C139.332 45.6669 144.868 52.2474 147.682 59.9984C150.114 66.6933 150.403 73.9232 149.277 80.9953V80.9955Z" fill="#F3B5C2"/>
<path d="M54.7689 43.0396C54.0189 48.434 50.2797 53.3142 45.2663 55.4419C43.0843 56.3679 40.6534 56.8273 38.7743 58.2719C36.9548 59.6705 35.42 61.8421 34.9859 64.0957C34.4264 67 35.8616 68.1414 35.0002 70.9594C34.1391 73.7775 30.1419 73.7608 29.4101 70.9589C28.6783 68.1569 31.1029 65.0724 29.8825 61.6897C28.8391 58.797 26.2211 56.6893 23.6982 54.9309C21.1755 53.1726 18.4023 51.7558 16.0917 49.7266C13.7814 47.6974 11.9215 44.8529 12.0363 41.7799C12.6159 35.7936 25.2013 46.6178 32.9755 47.7452C37.4708 48.3972 44.6403 47.4584 54.7687 43.0396H54.7689ZM52.3877 97.0917V97.0936L45.3801 96.8137H45.3782C45.2498 96.6144 45.1024 96.3902 44.9393 96.1467C43.5325 94.0499 40.9929 90.5827 39.4385 90.3048C37.9801 90.0441 36.0766 90.5558 36.0613 92.9612C36.0536 94.0307 36.8241 95.336 37.4204 96.4956L29.9893 96.2004C28.7072 95.3092 27.5551 94.4256 26.777 93.8295C25.4792 92.8347 23.9882 92.9766 22.8764 94.1764C22.4376 94.6517 22.3111 95.2555 22.3723 95.8957L18.4814 95.7404L12.5762 95.5047C13.5631 94.6422 14.5504 93.7797 15.5374 92.9191C19.2462 89.678 22.9569 86.4369 26.6656 83.1958C28.2296 81.8292 29.9297 80.3994 31.9939 80.1579C34.505 79.8666 36.8335 81.4018 38.8175 82.9677C42.6215 85.9749 46.1116 89.359 49.2346 93.0686C50.3324 94.3722 51.3842 95.7141 52.3877 97.0917Z" fill="#F3B5C2"/>
<path d="M13.0017 26.3417L3.34015 25.9565L3.11015 31.6912L12.6619 32.072C12.1643 30.1252 12.8135 28.2782 13.0017 26.3417ZM35.0917 29.4333C33.2706 27.9433 32.3079 30.8852 31.5851 32.8264L36.8239 33.0353C36.5742 31.6168 36.1084 30.3048 35.0917 29.4333ZM42.3589 27.5121C42.7225 29.4579 42.3825 31.3209 42.2397 33.2513L59.1152 33.9241L60.7942 33.9912L64.2672 34.1292L64.4492 29.556L64.4952 28.3945L42.3589 27.5121ZM24.1839 99.6504C23.9117 99.3399 23.6206 99.0563 23.2812 98.8186C22.438 98.2283 21.2955 97.9599 20.3659 98.4046C19.2696 98.9297 18.8422 100.287 19.0396 101.508L0.357819 100.762L0.587819 95.0274L12.5766 95.5047L18.4818 95.7404L22.3727 95.8957C22.4553 96.7543 22.8788 97.6782 23.335 98.4372C23.6321 98.9317 23.9426 99.3572 24.1841 99.6504H24.1839ZM37.2709 99.3667C36.119 99.6696 34.2292 98.8473 32.3106 97.705H32.3087C31.5245 97.2373 30.7349 96.7179 29.9893 96.2004L37.4204 96.4956C37.5565 96.7582 37.6828 97.0131 37.7884 97.2565L37.9341 97.6207C38.2407 98.4678 38.2024 99.1233 37.2709 99.3667ZM61.7429 97.4654L61.5129 103.2L56.1692 102.987C54.5937 102.612 52.9818 102.201 51.3354 101.757C49.9727 101.103 47.5711 100.323 45.802 97.4788C45.7023 97.3198 45.5586 97.0917 45.3803 96.8137L52.3878 97.0917L61.7431 97.4654H61.7429ZM109.866 6.78619C108.793 5.45698 106.947 3.33657 101.905 3.16101C100.015 3.09469 97.014 3.566 95.3821 4.52702C94.5486 5.01749 93.8446 5.68948 93.2621 6.46323C95.7492 9.82468 101.326 10.0754 106.18 10.0919C106.061 11.3011 105.531 15.053 105.412 16.2622C106.527 15.079 108.83 15.3999 109.292 16.9583C109.847 18.8305 107.789 20.499 106.267 19.9303C106.721 23.0328 109.027 25.4883 110.904 26.7832C111.396 21.8974 111.591 18.4006 112.03 13.7071C112.287 10.9346 111.173 8.40769 109.866 6.78619Z" fill="#232833"/>
<path d="M110.904 27.1665C110.828 27.1665 110.751 27.1435 110.686 27.0986C109.706 26.4221 106.462 23.9097 105.888 19.9859C105.878 19.92 105.886 19.8527 105.91 19.7907C105.934 19.7286 105.974 19.674 106.026 19.6321C106.078 19.5903 106.14 19.5627 106.205 19.552C106.271 19.5413 106.339 19.548 106.401 19.5713C106.995 19.7937 107.748 19.592 108.319 19.0592C108.906 18.512 109.132 17.7674 108.925 17.0676C108.766 16.5328 108.315 16.1407 107.688 15.9912C106.946 15.8143 106.163 16.0245 105.692 16.5252C105.637 16.5834 105.565 16.623 105.487 16.6384C105.408 16.6538 105.327 16.6443 105.254 16.6112C105.181 16.5781 105.121 16.523 105.081 16.4538C105.041 16.3845 105.023 16.3044 105.031 16.2248C105.091 15.614 105.257 14.3499 105.417 13.1273C105.545 12.1473 105.676 11.1403 105.754 10.4729C100.811 10.4382 95.4417 10.0535 92.9543 6.69113C92.9052 6.6247 92.8788 6.54419 92.8792 6.46157C92.8795 6.37896 92.9065 6.29867 92.9562 6.23266C93.604 5.37169 94.3548 4.68667 95.188 4.19639C96.8484 3.2187 99.9133 2.70714 101.919 2.77768C107.274 2.96417 109.154 5.29368 110.164 6.54527C111.802 8.57578 112.642 11.2662 112.412 13.7425C112.217 15.8229 112.069 17.6945 111.925 19.5044C111.746 21.7636 111.56 24.0996 111.286 26.8215C111.276 26.916 111.232 27.0036 111.162 27.0673C111.091 27.1311 110.999 27.1664 110.904 27.1665H110.904ZM106.746 20.42C107.365 23.2101 109.435 25.1695 110.589 26.0744C110.827 23.6429 110.996 21.5112 111.161 19.4439C111.304 17.6311 111.453 15.7568 111.648 13.6712C111.86 11.3896 111.082 8.90545 109.567 7.02673C108.634 5.87041 106.897 3.71818 101.892 3.54377C99.9944 3.47592 97.1163 3.95029 95.5767 4.85687C94.906 5.25152 94.2921 5.79106 93.7484 6.46285C96.1821 9.42219 101.431 9.69205 106.182 9.70815C106.235 9.70841 106.288 9.71979 106.337 9.74158C106.386 9.76337 106.429 9.79508 106.465 9.83469C106.501 9.8743 106.528 9.92093 106.545 9.97162C106.561 10.0223 106.567 10.0759 106.562 10.1291C106.502 10.7399 106.337 12.0039 106.177 13.2266C106.074 14.0137 105.969 14.8184 105.891 15.4503C106.482 15.1662 107.189 15.0842 107.865 15.245C108.754 15.4566 109.425 16.0563 109.66 16.8493C109.952 17.8339 109.646 18.8694 108.842 19.6194C108.238 20.1833 107.465 20.4689 106.746 20.42ZM4.0591 95.5457C4.00669 95.5457 3.95483 95.535 3.90672 95.5143C3.85861 95.4935 3.81527 95.4631 3.77938 95.4249C3.74349 95.3867 3.71581 95.3415 3.69806 95.2922C3.6803 95.2429 3.67284 95.1905 3.67615 95.1382C4.23179 86.339 10.1911 75.0103 19.2015 71.2832C19.6926 71.08 20.1972 70.8897 20.6852 70.7055C21.9838 70.2156 23.3268 69.709 24.4714 68.9328C26.0045 67.893 26.9113 66.8114 27.0091 64.3607C27.1068 61.9101 26.2888 60.7599 24.8432 59.6013C23.764 58.7361 22.4656 58.1243 21.2098 57.5326C20.7381 57.3103 20.2501 57.0805 19.7769 56.839C11.0917 52.4065 6.05281 40.6395 6.19925 31.8242C6.20166 31.7228 6.24389 31.6264 6.31681 31.5559C6.38973 31.4854 6.48747 31.4464 6.5889 31.4474C6.63924 31.4482 6.68893 31.4589 6.73513 31.479C6.78132 31.499 6.82311 31.5279 6.85812 31.5641C6.89313 31.6003 6.92067 31.643 6.93917 31.6898C6.95766 31.7367 6.96675 31.7867 6.96591 31.837C6.89155 36.3092 8.17418 41.4217 10.4841 45.8642C12.9367 50.5799 16.3606 54.235 20.1254 56.1565C20.5879 56.3924 21.0701 56.6197 21.5364 56.8394C22.8325 57.45 24.1726 58.0814 25.3226 59.0033C26.8739 60.2466 27.8846 61.6387 27.7748 64.3914C27.6651 67.1443 26.547 68.4517 24.9017 69.5676C23.6819 70.3948 22.296 70.9175 20.9557 71.4231C20.473 71.6052 19.9743 71.7934 19.4944 71.9918C15.5888 73.6073 11.8848 76.9785 9.06466 81.484C6.40835 85.7283 4.72303 90.7228 4.44109 95.1865C4.43495 95.2837 4.39203 95.375 4.32104 95.4417C4.25005 95.5084 4.15632 95.5456 4.0589 95.5457H4.0591ZM58.2701 97.7069H58.2636C58.1619 97.7052 58.0651 97.6632 57.9944 97.5901C57.9237 97.5171 57.8849 97.4189 57.8866 97.3173C57.9615 92.8447 56.6793 87.7318 54.3691 83.2894C51.9165 78.5732 48.4922 74.9181 44.7267 72.9976C44.2618 72.76 43.7772 72.5315 43.3086 72.3107C42.0152 71.701 40.678 71.0706 39.5305 70.1512C37.9795 68.9065 36.969 67.5139 37.0777 64.7615C37.1373 63.2744 37.4812 62.1524 38.16 61.2299C38.5827 60.6476 39.1358 60.1399 39.9516 59.5856C41.1725 58.757 42.5611 58.2335 43.9039 57.7275C44.3842 57.5466 44.8808 57.3594 45.3585 57.1621C49.2641 55.546 52.968 52.1748 55.7878 47.6695C58.4441 43.4254 60.1293 38.4311 60.4114 33.9672C60.425 33.756 60.6081 33.5984 60.8181 33.6088C60.9196 33.6152 61.0143 33.6616 61.0816 33.7379C61.1488 33.8142 61.1829 33.914 61.1765 34.0155C60.6207 42.814 54.6614 54.1424 45.6513 57.8707C45.1624 58.0727 44.66 58.2619 44.1744 58.4451C42.8733 58.9356 41.5278 59.4426 40.3822 60.22C39.6434 60.7221 39.1487 61.1733 38.7789 61.6824C38.1936 62.4778 37.8969 63.4653 37.8436 64.7922C37.7468 67.2425 38.5648 68.3934 40.0102 69.5532C41.0866 70.4157 42.3825 71.0267 43.6354 71.6172C44.1096 71.8407 44.5999 72.0719 45.0756 72.3149C53.7621 76.7459 58.8006 88.5134 58.6532 97.3301C58.6516 97.4306 58.6105 97.5265 58.5388 97.597C58.4672 97.6675 58.3706 97.7069 58.2701 97.7069ZM98.1444 25.6711C97.7874 25.6711 97.4504 25.6272 97.1623 25.5532C96.9572 25.5007 96.8336 25.2918 96.8863 25.0867C96.939 24.8816 97.1474 24.7576 97.353 24.8107C98.0394 24.9867 100.121 25.0735 100.664 23.2251C100.694 23.1295 100.761 23.0496 100.849 23.0025C100.938 22.9554 101.041 22.9449 101.138 22.9731C101.234 23.0014 101.315 23.0662 101.364 23.1537C101.413 23.2411 101.426 23.3443 101.4 23.4411C100.904 25.1287 99.3997 25.6711 98.1444 25.6711Z" fill="#232833"/>
<path d="M110.582 30.177C110.528 30.1771 110.474 30.1657 110.425 30.1437C110.376 30.1216 110.332 30.0894 110.296 30.049C110.26 30.0087 110.232 29.9612 110.216 29.9097C110.2 29.8581 110.194 29.8037 110.201 29.75C110.315 28.7494 110.423 27.748 110.524 26.746C110.529 26.6958 110.544 26.6471 110.567 26.6026C110.591 26.5581 110.623 26.5189 110.663 26.487C110.702 26.4551 110.747 26.4313 110.795 26.4169C110.843 26.4026 110.894 26.3979 110.944 26.4033C111.045 26.4135 111.138 26.4635 111.202 26.5423C111.267 26.621 111.297 26.7221 111.287 26.8232C111.185 27.8286 111.077 28.8334 110.963 29.8374C110.952 29.9308 110.907 30.017 110.837 30.0796C110.767 30.1422 110.676 30.1769 110.582 30.177H110.582ZM89.3967 27.6336L89.3818 27.6334C89.3315 27.6314 89.2821 27.6196 89.2363 27.5986C89.1906 27.5775 89.1495 27.5476 89.1153 27.5107C89.0811 27.4737 89.0545 27.4304 89.0371 27.3832C89.0196 27.336 89.0116 27.2858 89.0136 27.2355C89.1959 22.5364 89.6244 18.9513 90.3512 13.9794C90.6259 12.1155 90.931 10.2996 91.6408 8.57061C91.9957 7.70428 92.4377 6.91768 92.9545 6.23304C92.9848 6.19285 93.0227 6.15902 93.0661 6.13349C93.1095 6.10796 93.1576 6.09123 93.2074 6.08425C93.2573 6.07727 93.308 6.08019 93.3568 6.09283C93.4055 6.10547 93.4513 6.12758 93.4915 6.15791C93.5317 6.18824 93.5655 6.22619 93.5911 6.26959C93.6166 6.313 93.6333 6.361 93.6403 6.41087C93.6473 6.46074 93.6444 6.5115 93.6317 6.56024C93.6191 6.60899 93.597 6.65476 93.5666 6.69496C93.0894 7.32689 92.6802 8.05599 92.3501 8.86137C91.6734 10.5105 91.3772 12.2759 91.1097 14.0906C90.3869 19.0358 89.9606 22.6002 89.7795 27.265C89.7756 27.364 89.7336 27.4576 89.6623 27.5263C89.5909 27.5949 89.4958 27.6335 89.3967 27.6336Z" fill="#232833"/>
<path d="M111.857 27.748C111.797 27.748 111.737 27.734 111.68 27.7041C109.934 26.7906 106.476 24.0019 105.888 19.9857C105.878 19.9198 105.886 19.8525 105.91 19.7905C105.934 19.7284 105.974 19.6738 106.026 19.632C106.078 19.5901 106.14 19.5625 106.206 19.5518C106.271 19.5412 106.339 19.5478 106.401 19.5711C106.995 19.7935 107.748 19.5918 108.319 19.059C108.906 18.5118 109.132 17.7672 108.925 17.0674C108.766 16.5328 108.315 16.1405 107.688 15.9912C106.946 15.8143 106.163 16.0245 105.692 16.5252C105.637 16.5834 105.565 16.623 105.487 16.6384C105.408 16.6538 105.327 16.6443 105.254 16.6112C105.181 16.5781 105.121 16.5231 105.081 16.4538C105.041 16.3845 105.023 16.3044 105.031 16.2248C105.091 15.614 105.257 14.3499 105.417 13.1273C105.545 12.1473 105.676 11.1403 105.754 10.4729C101.142 10.4411 96.1038 10.1101 93.4423 7.27763C92.0596 5.8062 91.4348 3.7661 91.5854 1.21387C91.5919 1.1126 91.6381 1.01798 91.7139 0.950544C91.7897 0.883112 91.8891 0.848321 91.9904 0.853728C92.0919 0.859703 92.1869 0.905745 92.2544 0.981732C92.3219 1.05772 92.3565 1.15742 92.3506 1.25891C92.2112 3.62542 92.7511 5.42248 94.001 6.75265C96.5364 9.45074 101.618 9.6932 106.182 9.70853C106.236 9.70879 106.288 9.72018 106.337 9.74197C106.386 9.76376 106.429 9.79546 106.465 9.83507C106.501 9.87468 106.528 9.92132 106.545 9.972C106.562 10.0227 106.568 10.0763 106.562 10.1294C106.502 10.7403 106.337 12.0043 106.177 13.227C106.074 14.0141 105.969 14.8188 105.891 15.4507C106.482 15.1666 107.19 15.0846 107.865 15.2454C108.754 15.457 109.425 16.0567 109.66 16.8497C109.952 17.8342 109.647 18.8698 108.843 19.6198C108.238 20.1837 107.465 20.4691 106.747 20.4202C107.506 23.8382 110.49 26.2166 112.035 27.025C112.111 27.0648 112.172 27.1289 112.207 27.2071C112.242 27.2852 112.25 27.373 112.23 27.4563C112.209 27.5395 112.162 27.6135 112.094 27.6664C112.027 27.7193 111.943 27.748 111.858 27.748H111.857ZM62.0406 78.9201C61.985 78.9202 61.93 78.9082 61.8795 78.8849C61.829 78.8616 61.7842 78.8276 61.7482 78.7852C61.7122 78.7428 61.6859 78.6931 61.6711 78.6395C61.6563 78.5859 61.6533 78.5298 61.6624 78.4749L62.0394 73.4116C62.0432 73.3614 62.0568 73.3125 62.0794 73.2675C62.1021 73.2226 62.1334 73.1825 62.1715 73.1497C62.2097 73.1168 62.2539 73.0918 62.3017 73.076C62.3495 73.0603 62.4 73.0541 62.4502 73.0578C62.5004 73.0616 62.5493 73.0751 62.5943 73.0978C62.6392 73.1205 62.6793 73.1518 62.7121 73.1899C62.745 73.228 62.77 73.2723 62.7858 73.3201C62.8015 73.3679 62.8077 73.4184 62.804 73.4686L62.4247 78.565C62.4173 78.6617 62.3737 78.752 62.3025 78.8179C62.2314 78.8838 62.138 78.9204 62.041 78.9203L62.0406 78.9201ZM10.0504 79.7334C9.95585 79.7336 9.86455 79.6987 9.79415 79.6356C9.72375 79.5725 9.67923 79.4855 9.66919 79.3914C8.51536 71.5078 9.29506 61.4771 11.9862 49.5773C12.0101 49.4796 12.0714 49.3952 12.1569 49.3422C12.2424 49.2892 12.3453 49.272 12.4434 49.2941C12.5415 49.3163 12.627 49.3761 12.6814 49.4607C12.7358 49.5453 12.7548 49.6479 12.7343 49.7464C10.0625 61.5605 9.2872 71.5015 10.4299 79.2935C10.4379 79.348 10.434 79.4036 10.4186 79.4565C10.4033 79.5094 10.3767 79.5583 10.3407 79.6C10.3047 79.6418 10.2602 79.6753 10.2102 79.6983C10.1601 79.7213 10.1055 79.7332 10.0504 79.7334ZM56.1192 86.5979C56.0459 86.5979 55.9742 86.5768 55.9125 86.5373C55.8508 86.4977 55.8018 86.4413 55.7712 86.3747C55.7405 86.3082 55.7296 86.2342 55.7398 86.1616C55.7499 86.089 55.7806 86.0209 55.8283 85.9652C57.0419 84.549 58.296 82.9789 59.5558 81.2983C59.6168 81.217 59.7076 81.1632 59.8083 81.1488C59.909 81.1344 60.0112 81.1606 60.0926 81.2216C60.1739 81.2826 60.2277 81.3734 60.2421 81.4741C60.2565 81.5747 60.2303 81.677 60.1693 81.7583C58.8994 83.4521 57.6345 85.0355 56.4104 86.4641C56.3744 86.5062 56.3297 86.54 56.2794 86.5631C56.2291 86.5862 56.1744 86.5982 56.119 86.5981L56.1192 86.5979ZM94.3824 17.1427C94.3269 17.1427 94.272 17.1307 94.2216 17.1075C94.1712 17.0842 94.1264 17.0503 94.0904 17.0081C94.0544 16.9658 94.028 16.9162 94.013 16.8628C93.998 16.8093 93.9949 16.7532 94.0037 16.6984L94.4568 13.8823C94.4643 13.8321 94.4816 13.7839 94.5078 13.7405C94.534 13.6971 94.5686 13.6593 94.6095 13.6294C94.6505 13.5994 94.6969 13.5779 94.7462 13.566C94.7955 13.5542 94.8467 13.5522 94.8968 13.5602C94.9469 13.5683 94.9948 13.5862 95.0379 13.6129C95.0811 13.6397 95.1184 13.6747 95.1479 13.7159C95.1774 13.7572 95.1984 13.8039 95.2096 13.8534C95.2209 13.9028 95.2223 13.954 95.2137 14.004L94.7606 16.8201C94.7461 16.91 94.7001 16.9919 94.6308 17.051C94.5615 17.1101 94.4735 17.1426 94.3824 17.1427Z" fill="#232833"/>
<path d="M102.277 18.244C102.185 18.244 102.092 18.2107 102.018 18.1432L99.866 16.1694C99.8144 16.1221 99.7767 16.0616 99.7571 15.9944C99.7375 15.9273 99.7366 15.856 99.7546 15.7883C99.7726 15.7207 99.8087 15.6593 99.8592 15.6107C99.9096 15.5622 99.9723 15.5284 100.041 15.513L102.575 14.9405C102.674 14.9185 102.778 14.9365 102.864 14.9907C102.95 15.0449 103.01 15.1309 103.033 15.2299C103.044 15.279 103.046 15.3298 103.037 15.3795C103.029 15.4291 103.01 15.4765 102.983 15.5191C102.957 15.5617 102.922 15.5986 102.88 15.6276C102.839 15.6566 102.793 15.6773 102.744 15.6883L100.924 16.0997L102.536 17.5786C102.593 17.6308 102.633 17.699 102.651 17.7742C102.668 17.8494 102.662 17.9282 102.634 18.0002C102.606 18.0722 102.557 18.134 102.493 18.1776C102.43 18.2212 102.354 18.2445 102.277 18.2444L102.277 18.244ZM25.6406 111.147C25.5488 111.147 25.4566 111.114 25.383 111.047C23.6718 109.493 22.4489 108.262 21.2631 106.567L21.1586 106.417C21.1295 106.376 21.1089 106.329 21.098 106.279C21.0872 106.229 21.0864 106.178 21.0956 106.128C21.1048 106.078 21.1239 106.03 21.1517 105.988C21.1796 105.945 21.2156 105.908 21.2577 105.88C21.2998 105.851 21.3472 105.831 21.3971 105.821C21.4469 105.811 21.4983 105.811 21.5481 105.821C21.598 105.831 21.6453 105.851 21.6875 105.88C21.7296 105.908 21.7656 105.945 21.7934 105.987L21.8944 106.133C23.0358 107.764 24.2272 108.962 25.8984 110.479C25.9557 110.531 25.9959 110.6 26.0138 110.675C26.0316 110.75 26.0262 110.829 25.9983 110.901C25.9704 110.974 25.9213 111.036 25.8574 111.079C25.7936 111.123 25.718 111.147 25.6406 111.147ZM29.4831 104.791C29.4254 104.791 29.3669 104.778 29.3117 104.75C28.2582 104.223 27.0859 103.317 25.8274 102.059C24.8551 101.091 24.1436 100.218 23.8828 99.8881C23.8511 99.8486 23.8275 99.8033 23.8134 99.7547C23.7993 99.706 23.7949 99.6551 23.8006 99.6048C23.8063 99.5545 23.8219 99.5058 23.8465 99.4616C23.8711 99.4173 23.9042 99.3784 23.9439 99.347C23.9837 99.3157 24.0292 99.2925 24.078 99.2788C24.1267 99.2651 24.1777 99.2612 24.2279 99.2673C24.2782 99.2735 24.3267 99.2895 24.3707 99.3145C24.4148 99.3395 24.4534 99.3729 24.4844 99.4129C24.7367 99.7325 25.4253 100.577 26.3689 101.516C27.5528 102.7 28.6888 103.581 29.655 104.065C29.7323 104.104 29.7943 104.167 29.8309 104.245C29.8675 104.324 29.8766 104.412 29.8567 104.496C29.8368 104.58 29.789 104.655 29.7212 104.709C29.6534 104.762 29.5695 104.791 29.4831 104.791V104.791Z" fill="#232833"/>
<path d="M83.2414 132.79C78.1053 132.79 72.7415 132.443 67.2086 131.749C49.0513 129.473 36.1792 124.456 36.0513 124.406C32.0698 122.836 27.9218 120.635 24.6713 118.367C20.3532 115.355 17.6785 112.341 16.7206 109.41C16.7168 109.401 16.7134 109.392 16.7104 109.382C16.614 109.088 16.5342 108.788 16.4714 108.485C16.3039 107.693 16.1483 106.657 16.4373 105.685C16.7022 104.789 17.4681 103.831 18.5817 103.714C18.9236 103.676 19.2765 103.776 19.6205 103.953C19.2949 103.353 19.0392 102.801 18.8504 102.292L18.8282 102.228C18.8111 102.181 18.795 102.133 18.78 102.085C18.7284 101.915 18.6885 101.742 18.6608 101.567C18.4161 100.053 19.0488 98.6099 20.2001 98.0584C21.0337 97.6598 21.937 97.7614 22.6877 98.064C22.3669 97.4417 22.0625 96.6794 21.9907 95.9319C21.9125 95.1133 22.1156 94.435 22.5946 93.916C23.8374 92.5749 25.5706 92.4211 27.01 93.5248L27.0378 93.546C27.7985 94.1289 28.9483 95.0096 30.208 95.8853C31.0159 96.4459 31.7814 96.9431 32.4836 97.3627C32.4913 97.3667 32.499 97.3707 32.5064 97.3751C35.2484 99.0078 36.5585 99.1573 37.1731 98.9955C37.4302 98.9282 37.5962 98.8259 37.6671 98.6907C37.7641 98.5066 37.7324 98.1901 37.5733 97.7504C37.5332 97.6357 37.4881 97.5228 37.4382 97.4119C37.3478 97.2038 37.2347 96.9696 37.08 96.6713C37.0022 96.5201 36.9222 96.3678 36.8412 96.2135C36.2656 95.1173 35.6707 93.984 35.6779 92.9578C35.6847 91.9149 36.0314 91.0781 36.6807 90.538C37.3828 89.954 38.4126 89.7311 39.5057 89.9266C41.1232 90.2158 43.5265 93.3523 45.2576 95.9323C45.4009 96.146 45.5424 96.361 45.6822 96.577C45.6895 96.5862 45.6962 96.5958 45.7027 96.6058C45.8452 96.8279 45.9865 97.0508 46.1267 97.2745C47.6113 99.6615 49.5295 100.521 50.93 101.149C51.1299 101.238 51.3172 101.322 51.4883 101.404C54.4172 102.552 57.1801 103.212 60.182 103.479C60.2832 103.488 60.3767 103.536 60.442 103.614C60.5072 103.692 60.5388 103.793 60.5298 103.894C60.5203 103.995 60.4713 104.089 60.3935 104.154C60.3157 104.219 60.2153 104.251 60.1141 104.242C57.0329 103.968 54.1989 103.292 51.1951 102.113C51.1863 102.109 51.1777 102.106 51.1692 102.101C51.0002 102.02 50.8146 101.937 50.6163 101.848C49.2096 101.218 47.0838 100.265 45.4761 97.6803C45.3437 97.4687 45.21 97.2578 45.0752 97.0478C45.0684 97.0388 45.0619 97.0297 45.0556 97.0204C44.9125 96.7986 44.7674 96.5782 44.6203 96.3591C42.3579 92.9871 40.3954 90.8644 39.3706 90.6812C38.5133 90.528 37.6908 90.6946 37.1705 91.1274C36.6938 91.5239 36.4492 92.1415 36.444 92.963C36.4381 93.7975 36.9878 94.8444 37.5195 95.8571C37.6015 96.0132 37.6826 96.1676 37.7606 96.3196C37.9231 96.6328 38.0437 96.8822 38.1395 97.1032C38.2012 97.2416 38.2545 97.3746 38.2957 97.4951C38.4462 97.9105 38.6174 98.5299 38.3452 99.0474C38.1698 99.3811 37.8407 99.6132 37.3671 99.7369C36.2541 100.029 34.5421 99.4768 32.1352 98.0464C32.1272 98.0424 32.1193 98.0381 32.1116 98.0335C31.3886 97.6023 30.6007 97.0911 29.77 96.5146C28.4956 95.6287 27.3374 94.7415 26.5711 94.1544L26.5433 94.1331C25.406 93.2616 24.1406 93.3749 23.1569 94.4363C22.828 94.7926 22.696 95.258 22.7535 95.8585C22.8355 96.7122 23.293 97.6243 23.6626 98.239C24.0018 98.8034 24.3198 99.2125 24.4791 99.406C24.5424 99.4838 24.5727 99.5833 24.5636 99.6832C24.5544 99.7831 24.5065 99.8754 24.43 99.9403C24.3536 100.005 24.2547 100.038 24.1547 100.031C24.0546 100.023 23.9614 99.9774 23.8949 99.9023C23.6066 99.5734 23.3413 99.3284 23.0603 99.1316C22.2396 98.557 21.246 98.4069 20.5305 98.7494C19.5427 99.2226 19.2607 100.479 19.4171 101.445C19.4386 101.583 19.4706 101.722 19.5128 101.861C19.5243 101.898 19.5373 101.936 19.5503 101.972L19.5718 102.034C19.9672 103.102 20.6938 104.396 21.79 105.983C21.812 106.017 21.826 106.037 21.8404 106.058L21.864 106.092C21.9226 106.175 21.9459 106.278 21.9287 106.378C21.9114 106.478 21.8551 106.567 21.7721 106.626C21.689 106.685 21.5861 106.708 21.4859 106.691C21.3857 106.673 21.2964 106.617 21.2378 106.534C20.6028 105.664 19.3926 104.398 18.6616 104.475C17.9037 104.555 17.3579 105.271 17.1714 105.903C16.9328 106.705 17.0627 107.578 17.221 108.328C17.2749 108.59 17.3437 108.849 17.4307 109.12C17.4345 109.129 17.4378 109.138 17.4409 109.148C19.5172 115.568 30.2923 121.311 36.3317 123.692C36.4586 123.742 49.2407 128.723 67.3031 130.988C75.9833 132.076 84.2415 132.308 91.8474 131.677C101.085 130.91 109.407 128.86 116.58 125.584C130.506 119.223 140.322 108.17 145.758 92.7297C145.794 92.6361 145.864 92.5601 145.955 92.5179C146.046 92.4757 146.15 92.4707 146.244 92.5039C146.338 92.5372 146.416 92.606 146.46 92.6958C146.505 92.7855 146.512 92.889 146.481 92.9843C140.974 108.628 131.021 119.831 116.899 126.281C109.644 129.595 101.237 131.667 91.9108 132.441C89.1045 132.673 86.2107 132.79 83.2408 132.79L83.2414 132.79ZM115.546 85.7565C115.334 85.7565 115.162 85.5869 115.162 85.3751C115.162 85.3226 115.173 85.2705 115.193 85.2219C116.914 81.1546 118.174 76.3784 118.938 71.0265C118.945 70.9767 118.962 70.9288 118.988 70.8855C119.014 70.8422 119.048 70.8043 119.088 70.7741C119.128 70.7439 119.174 70.722 119.223 70.7095C119.271 70.697 119.322 70.6942 119.372 70.7014C119.422 70.7085 119.47 70.7254 119.513 70.751C119.556 70.7767 119.594 70.8106 119.624 70.8509C119.655 70.8911 119.677 70.9369 119.689 70.9857C119.702 71.0345 119.704 71.0852 119.697 71.135C118.925 76.5475 117.648 81.3838 115.903 85.5096C115.876 85.5822 115.827 85.6446 115.763 85.6888C115.699 85.7329 115.623 85.7566 115.546 85.7569V85.7565ZM18.5619 33.9973C18.4655 33.9972 18.3726 33.9607 18.3018 33.8952C18.2311 33.8297 18.1876 33.7398 18.1801 33.6437L18.1688 33.471C18.0419 31.4453 18.2261 29.7582 18.5872 27.527C18.5953 27.4773 18.613 27.4297 18.6394 27.3868C18.6659 27.344 18.7005 27.3068 18.7413 27.2773C18.7821 27.2479 18.8283 27.2267 18.8773 27.2151C18.9263 27.2035 18.9771 27.2017 19.0268 27.2097C19.0765 27.2177 19.1241 27.2355 19.167 27.2619C19.2098 27.2884 19.247 27.323 19.2765 27.3638C19.306 27.4046 19.3271 27.4508 19.3387 27.4998C19.3503 27.5488 19.3521 27.5996 19.3441 27.6493C18.9916 29.8268 18.8117 31.4686 18.9336 33.4171L18.9445 33.5841C18.9486 33.6368 18.9417 33.6898 18.9244 33.7397C18.907 33.7897 18.8795 33.8355 18.8435 33.8743C18.8076 33.913 18.764 33.944 18.7156 33.9651C18.6671 33.9863 18.6148 33.9972 18.5619 33.9971V33.9973ZM24.6257 37.3553C24.5244 37.3553 24.4273 37.3153 24.3555 37.2439C24.2837 37.1726 24.243 37.0757 24.2424 36.9745C24.2393 36.5238 24.2475 32.499 25.4297 29.9445C25.4724 29.8522 25.55 29.7807 25.6455 29.7456C25.7409 29.7105 25.8464 29.7148 25.9387 29.7575C26.031 29.8002 26.1025 29.8779 26.1376 29.9733C26.1727 30.0688 26.1684 30.1742 26.1257 30.2665C25.2221 32.2186 24.9987 35.3984 25.009 36.9695C25.0093 37.0198 24.9998 37.0697 24.9808 37.1164C24.9618 37.163 24.9339 37.2054 24.8985 37.2413C24.8631 37.2771 24.8211 37.3056 24.7747 37.3252C24.7283 37.3447 24.6785 37.355 24.6282 37.3553H24.6257Z" fill="#232833"/>
<path d="M27.4926 42.3787C27.2965 42.3784 27.1006 42.3633 26.9067 42.3336C25.4734 42.115 24.7578 40.6362 24.4459 39.1282C24.0028 39.8997 23.3249 40.4482 22.5532 40.627C21.022 40.9791 19.545 39.7747 19.0032 38.4077C18.9765 38.338 18.9514 38.2686 18.9307 38.203C18.7668 37.7049 18.6271 37.1358 18.511 36.4888C18.3565 36.8273 18.1485 37.1123 17.8696 37.2896C16.9473 37.8795 15.7728 37.6139 15.018 37.0889C14.2071 36.5214 13.694 35.6318 13.3375 34.9204C13.1994 34.6511 13.0768 34.3741 12.9705 34.0908C12.9634 34.0719 12.9578 34.0524 12.9538 34.0326C12.4781 32.7472 12.2356 31.2986 12.2331 29.726C12.2021 24.6118 14.0608 20.4704 17.4668 18.0665C22.2891 14.6633 34.4649 16.0318 38.4705 19.4615C41.4916 22.0488 42.4785 25.807 42.7746 28.5043C43.1177 31.6306 42.659 34.2612 42.3374 34.9748C41.997 35.7298 41.2388 36.2693 40.3585 36.3828C39.3106 36.5177 38.2632 36.0453 37.4881 35.0862C36.8103 34.2497 36.4607 33.1848 36.1226 32.1548C35.7466 31.0092 35.3914 29.9271 34.6516 29.5631C34.2915 29.4272 33.9719 29.4433 33.6745 29.6127C32.1674 30.4701 31.4487 34.7465 30.9729 37.5761C30.8123 38.5308 30.6737 39.3551 30.5298 39.9344C30.1476 41.465 28.9852 42.3791 27.4925 42.3791L27.4926 42.3787ZM24.6261 36.5881H24.637C24.7378 36.5908 24.8335 36.6332 24.9032 36.7061C24.973 36.7789 25.0112 36.8763 25.0096 36.9771C24.987 38.458 25.3784 41.3247 27.0221 41.5754C28.4136 41.7857 29.4475 41.1031 29.7861 39.7483C29.923 39.1984 30.0593 38.3874 30.217 37.4484C30.7466 34.2978 31.4718 29.983 33.2955 28.9457C33.8031 28.6571 34.3576 28.6262 34.9427 28.853C34.9519 28.8564 34.9608 28.8604 34.9696 28.8645C36.0138 29.3636 36.4205 30.6029 36.8512 31.9152C37.1676 32.8793 37.4948 33.8762 38.0843 34.6035C38.6885 35.3514 39.4825 35.7231 40.2607 35.6219C40.8788 35.5423 41.4067 35.1734 41.6386 34.6593C42.1925 33.4311 43.3316 24.6336 37.972 20.0436C34.1993 16.8123 22.3815 15.5362 17.9089 18.6925C14.7138 20.9477 12.9704 24.8648 13 29.7227C13.0023 31.2273 13.2351 32.6043 13.6917 33.8169C13.6988 33.8357 13.7043 33.8547 13.7084 33.8739C13.8002 34.1126 13.9048 34.3462 14.0216 34.5738C14.3587 35.2466 14.7915 35.9943 15.4568 36.4598C15.9838 36.8267 16.8354 37.0408 17.4574 36.6431C18.0211 36.2845 18.2219 34.7647 18.1707 33.5043C18.1653 33.4028 18.2005 33.3033 18.2685 33.2276C18.3364 33.152 18.4317 33.1065 18.5332 33.1011C18.6347 33.0956 18.7343 33.1308 18.8099 33.1988C18.8855 33.2667 18.931 33.362 18.9365 33.4635C19.0632 35.3988 19.2999 36.8719 19.6606 37.9675C19.6784 38.0234 19.6981 38.0783 19.7181 38.1298C20.1388 39.1915 21.2499 40.1381 22.3815 39.8799C23.1353 39.7051 23.8012 38.9868 24.0775 38.0501C24.1726 37.7279 24.227 37.3701 24.2437 36.9561C24.2477 36.8572 24.2898 36.7637 24.3611 36.6952C24.4325 36.6266 24.5275 36.5883 24.6265 36.5882L24.6261 36.5881Z" fill="#232833"/>
</g>
<defs>
<clipPath id="clip0_19_2">
<rect width="150" height="133" fill="white"/>
</clipPath>
</defs>
</svg>
