<svg viewBox="0 0 268 191" fill="none" xmlns="http://www.w3.org/2000/svg">
<g clip-path="url(#clip0_16_3)">
<path d="M116.403 157.142C113.409 156.041 110.324 154.75 107.383 153.527C83.5435 143.614 64.3551 139.14 90.8563 93.9354C92.7333 90.7337 94.531 87.7274 96.2615 84.9073C104.325 93.8392 114.003 99.1224 124.539 101.117V101.12C120.837 107.609 116.06 115.135 111.192 124.456C114.289 126.456 117.561 128.468 120.663 129.788V129.788C122.494 126.463 124.859 123.581 127.914 120.559L157.563 38.9155C138.739 35.9916 99.4293 34.2656 70.7464 61.1068C60.3046 70.879 52.8685 84.5276 42.2488 94.1041C31.6318 103.681 13.2723 111.4 0.0794067 105.886C6.72471 122.525 22.1118 135.38 39.668 138.962C50.2257 141.118 60.8427 142.347 71.2845 145.013C88.0652 149.296 103.223 163.573 105.868 178.368C112.014 176.761 115.473 169.727 116.297 163.426C116.57 161.345 116.537 159.248 116.403 157.144V157.142L116.403 157.142Z" fill="black"/>
<path d="M216.993 159.928C216.276 159.937 215.601 159.888 214.978 159.775C214.716 159.702 214.466 159.616 214.218 159.515C213.477 159.219 212.735 158.847 212.225 158.237C211.716 157.623 211.487 156.714 211.856 156.009C212.348 155.072 214.649 154.931 214.997 154.919C213.513 154.947 211.948 154.892 210.693 154.592C210.635 154.577 210.58 154.565 210.522 154.55C209.323 154.19 208.27 153.066 208.444 151.836C208.575 150.912 209.35 150.185 210.223 149.843C210.571 149.709 210.931 149.63 211.304 149.584C210.037 149.709 206.961 149.651 206.518 147.814C206.17 146.373 206.814 145.18 208.215 144.701C210.287 143.996 214.804 142.454 216.779 140.736C216.782 139.888 216.859 139.178 216.791 138.224L216.859 131.665C217.069 116.399 217.597 105.112 217.094 95.3943C218.146 97.1431 219.26 99.0506 220.442 101.117C232.086 100.398 241.747 94.8983 248.716 84.9042C229.65 53.7852 219.038 45.1203 202.926 41.3113V41.3144L189.225 45.4326C182.774 49.0658 175.842 53.0823 172.469 54.2613C170.568 54.301 155.276 44.6927 155.276 44.6927L141.728 41.467C125.787 45.2852 115.212 53.9744 96.2615 84.9073L97.2587 86.5725C103.265 96.0334 112.767 100.689 124.539 101.117C125.717 99.0506 126.831 97.1431 127.884 95.3973C127.381 105.115 127.906 116.402 128.119 131.665C128.119 134.469 128.232 136.34 128.186 138.224C128.189 139.051 128.195 139.884 128.195 140.733C130.17 142.451 134.69 143.996 136.763 144.701C138.164 145.18 138.805 146.373 138.46 147.814C138.017 149.651 134.941 149.709 133.677 149.584C134.046 149.63 134.406 149.709 134.757 149.843C135.624 150.185 136.403 150.912 136.534 151.836C136.708 153.066 135.655 154.19 134.458 154.55C134.397 154.565 134.342 154.577 134.287 154.592C133.03 154.892 131.464 154.947 129.981 154.919C130.332 154.931 132.63 155.072 133.122 156.009C133.491 156.714 133.262 157.623 132.752 158.237C132.243 158.847 131.501 159.219 130.762 159.515C130.515 159.616 130.262 159.702 129.999 159.775C129.377 159.888 128.702 159.937 127.985 159.928C127.954 161.124 127.921 162.339 127.884 163.572C156.308 169.739 194.591 168.608 217.094 163.572C217.057 162.339 217.023 161.124 216.993 159.928Z" fill="#F3B5C2"/>
<path d="M218.082 188.596C187.598 191.579 156.93 191.5 126.086 188.464C126.66 180.297 127.31 171.739 127.884 163.572C155.988 166.398 194.304 165.614 217.093 163.572C217.466 171.913 217.71 180.254 218.082 188.596ZM128.152 160.539C128.094 160.539 128.036 160.539 127.977 160.538C122.51 160.48 114.617 157.197 107.654 154.301L107.149 154.091C105.807 153.533 104.48 152.992 103.175 152.46C91.5888 147.739 81.5822 143.662 78.4523 134.429C75.442 125.548 79.2162 112.583 90.3298 93.6262C92.2758 90.3074 94.046 87.3505 95.7414 84.5878C95.7829 84.5184 95.8376 84.458 95.9026 84.41C95.9675 84.362 96.0414 84.3273 96.1198 84.308C96.1983 84.2888 96.2797 84.2852 96.3595 84.2977C96.4393 84.3101 96.5159 84.3383 96.5847 84.3806C96.6536 84.4228 96.7133 84.4783 96.7606 84.5438C96.8078 84.6093 96.8416 84.6836 96.8599 84.7622C96.8783 84.8409 96.8808 84.9224 96.8674 85.0021C96.854 85.0817 96.825 85.1579 96.7819 85.2262C95.0904 87.9823 93.3245 90.9318 91.3828 94.2439C80.4618 112.872 76.7202 125.517 79.6081 134.037C82.5589 142.742 92.3259 146.722 103.635 151.329C104.943 151.862 106.273 152.404 107.618 152.964L108.123 153.174C114.984 156.027 122.76 159.262 127.991 159.317C128.673 159.327 129.298 159.28 129.862 159.179C130.098 159.112 130.318 159.037 130.532 158.95C131.15 158.702 131.838 158.379 132.283 157.845C132.611 157.451 132.845 156.796 132.581 156.292C132.366 155.883 131.052 155.567 129.96 155.529C129.799 155.524 129.647 155.456 129.537 155.34C129.426 155.224 129.366 155.069 129.368 154.909C129.371 154.748 129.437 154.595 129.552 154.483C129.666 154.371 129.82 154.308 129.981 154.309H129.992C131.772 154.343 133.131 154.24 134.146 153.999C134.167 153.992 134.211 153.981 134.256 153.97L134.311 153.957C135.176 153.696 136.059 152.839 135.929 151.922C135.842 151.304 135.293 150.711 134.533 150.411C134.26 150.306 133.953 150.233 133.602 150.19C133.441 150.172 133.294 150.091 133.193 149.964C133.092 149.838 133.045 149.677 133.063 149.516C133.081 149.355 133.162 149.207 133.288 149.106C133.415 149.005 133.576 148.958 133.737 148.976C134.774 149.078 137.535 149.044 137.866 147.67C138.14 146.527 137.666 145.655 136.565 145.278C134.393 144.539 129.871 143 127.795 141.193C127.248 140.716 126.902 140.252 126.734 139.775C126.567 139.286 126.581 138.855 126.773 138.492C126.985 138.09 127.394 137.81 128.023 137.636C128.101 137.613 128.182 137.606 128.263 137.615C128.343 137.624 128.421 137.648 128.492 137.688C128.563 137.727 128.625 137.78 128.675 137.844C128.725 137.907 128.762 137.98 128.784 138.058C128.805 138.136 128.811 138.218 128.801 138.298C128.791 138.378 128.765 138.456 128.724 138.526C128.684 138.596 128.63 138.658 128.566 138.707C128.501 138.756 128.428 138.792 128.349 138.812C127.942 138.925 127.864 139.04 127.852 139.062C127.831 139.102 127.83 139.205 127.888 139.376C127.981 139.64 128.22 139.943 128.597 140.273C130.492 141.921 135.024 143.464 136.959 144.122C138.65 144.701 139.472 146.205 139.053 147.955C138.733 149.282 137.479 149.852 136.251 150.085C136.734 150.553 137.05 151.133 137.138 151.75C137.369 153.389 136.021 154.717 134.634 155.134L134.541 155.157C134.511 155.164 134.48 155.172 134.45 155.18C134.128 155.257 133.781 155.321 133.406 155.372C133.508 155.479 133.594 155.596 133.662 155.725C134.118 156.595 133.941 157.761 133.221 158.626C132.598 159.373 131.701 159.796 130.989 160.082C130.727 160.189 130.456 160.281 130.163 160.363C130.145 160.368 130.127 160.372 130.108 160.375C129.51 160.484 128.852 160.539 128.152 160.539L128.152 160.539Z" fill="black"/>
<path d="M128.12 132.276C128.082 132.276 128.043 132.272 128.004 132.265C127.073 132.085 126.195 131.947 125.555 131.845C125.304 131.807 125.054 131.766 124.805 131.723C120.378 130.941 115.286 127.827 110.861 124.969C110.734 124.887 110.641 124.759 110.603 124.612C110.564 124.465 110.581 124.309 110.651 124.174C113.968 117.824 117.257 112.28 120.158 107.388C121.526 105.082 122.819 102.903 124 100.834C124.052 100.736 124.129 100.654 124.224 100.596C124.319 100.539 124.428 100.509 124.539 100.509C124.876 100.509 125.15 100.78 125.15 101.117V101.121C125.15 101.227 125.122 101.331 125.07 101.423C123.881 103.506 122.583 105.694 121.209 108.011C118.39 112.762 115.206 118.13 111.992 124.246C116.204 126.952 120.965 129.806 125.018 130.521C125.193 130.553 125.442 130.592 125.745 130.64C126.395 130.742 127.284 130.883 128.235 131.066C128.384 131.095 128.517 131.178 128.608 131.299C128.699 131.421 128.742 131.572 128.728 131.723C128.713 131.874 128.643 132.015 128.531 132.117C128.419 132.219 128.272 132.276 128.12 132.276L128.12 132.276ZM216.825 160.539C216.125 160.539 215.468 160.484 214.869 160.376C214.851 160.372 214.832 160.368 214.814 160.363C214.534 160.285 214.258 160.191 213.988 160.081C213.279 159.798 212.381 159.375 211.757 158.628C211.037 157.761 210.86 156.595 211.316 155.725C211.383 155.597 211.469 155.479 211.57 155.373C211.228 155.328 210.888 155.265 210.552 155.186L210.367 155.14C208.959 154.718 207.608 153.391 207.84 151.751C207.927 151.132 208.244 150.552 208.727 150.085C207.498 149.852 206.244 149.283 205.925 147.957C205.502 146.208 206.324 144.703 208.017 144.123C209.954 143.464 214.486 141.922 216.379 140.276C216.757 139.944 216.996 139.642 217.086 139.377C217.146 139.204 217.145 139.101 217.124 139.062C217.113 139.04 217.035 138.926 216.628 138.813C216.475 138.767 216.346 138.663 216.269 138.523C216.191 138.383 216.172 138.219 216.215 138.065C216.257 137.911 216.359 137.779 216.497 137.699C216.635 137.619 216.8 137.597 216.954 137.636C217.584 137.811 217.993 138.091 218.205 138.494C218.396 138.857 218.408 139.288 218.241 139.772C218.079 140.248 217.732 140.714 217.181 141.196C215.106 143.001 210.585 144.54 208.412 145.279C207.309 145.656 206.835 146.528 207.111 147.671C207.442 149.044 210.207 149.079 211.244 148.977C211.402 148.964 211.559 149.013 211.682 149.115C211.804 149.216 211.882 149.361 211.9 149.518C211.917 149.676 211.873 149.835 211.775 149.96C211.678 150.086 211.535 150.168 211.378 150.19C211.025 150.234 210.72 150.306 210.443 150.413C209.685 150.71 209.136 151.303 209.049 151.923C208.919 152.839 209.804 153.697 210.698 153.965L210.849 154.002C211.848 154.24 213.205 154.342 214.985 154.309H214.997C215.157 154.308 215.312 154.371 215.426 154.483C215.541 154.595 215.606 154.748 215.609 154.909C215.612 155.069 215.552 155.224 215.441 155.34C215.33 155.456 215.178 155.524 215.018 155.529C213.925 155.568 212.611 155.883 212.397 156.292C212.133 156.796 212.366 157.451 212.695 157.847C213.14 158.38 213.83 158.703 214.445 158.948C214.667 159.039 214.886 159.114 215.115 159.179C215.679 159.28 216.309 159.326 216.985 159.317C222.217 159.262 230 156.025 236.866 153.169L237.36 152.964C238.704 152.405 240.034 151.863 241.341 151.33C252.65 146.722 262.417 142.742 265.368 134.037C268.256 125.518 264.515 112.873 253.595 94.2439C251.664 90.9477 249.899 87.9972 248.196 85.2232C248.111 85.0852 248.085 84.9192 248.123 84.7617C248.16 84.6043 248.259 84.4682 248.397 84.3836C248.535 84.2989 248.701 84.2725 248.859 84.3102C249.016 84.348 249.152 84.4467 249.237 84.5847C250.944 87.3658 252.714 90.3235 254.648 93.6265C265.761 112.584 269.534 125.549 266.524 134.429C263.394 143.662 253.388 147.739 241.802 152.46C240.497 152.992 239.17 153.532 237.828 154.09L237.334 154.296C230.366 157.194 222.467 160.479 216.999 160.537C216.941 160.538 216.882 160.539 216.825 160.539V160.539Z" fill="black"/>
<path d="M216.858 132.276C216.706 132.276 216.56 132.219 216.447 132.117C216.335 132.015 216.265 131.874 216.25 131.723C216.236 131.572 216.279 131.421 216.37 131.299C216.461 131.178 216.594 131.094 216.743 131.066C217.694 130.882 218.583 130.742 219.233 130.639C219.536 130.592 219.785 130.552 219.959 130.521C224.012 129.806 228.775 126.953 232.988 124.246C229.773 118.131 226.59 112.764 223.773 108.013C222.399 105.696 221.1 103.506 219.911 101.423C219.861 101.334 219.833 101.234 219.831 101.131C219.829 101.029 219.853 100.928 219.9 100.837C219.948 100.746 220.017 100.669 220.102 100.612C220.187 100.555 220.285 100.52 220.386 100.51C220.646 100.484 220.884 100.63 220.991 100.851C222.17 102.916 223.459 105.09 224.823 107.39C227.724 112.281 231.011 117.825 234.329 124.173C234.4 124.308 234.418 124.465 234.379 124.612C234.34 124.759 234.247 124.886 234.12 124.969C229.693 127.827 224.6 130.942 220.172 131.723C219.994 131.755 219.737 131.795 219.423 131.845C218.782 131.946 217.905 132.084 216.974 132.264C216.936 132.271 216.897 132.275 216.858 132.275L216.858 132.276ZM130.098 155.528H130.094L129.934 155.525C128.071 155.482 126.125 155.025 124.14 154.164C123.993 154.098 123.879 153.977 123.821 153.828C123.763 153.678 123.766 153.512 123.83 153.365C123.894 153.217 124.013 153.101 124.161 153.041C124.31 152.981 124.477 152.982 124.625 153.044C126.465 153.842 128.257 154.266 129.951 154.304L130.101 154.307C130.263 154.307 130.418 154.372 130.532 154.487C130.646 154.602 130.71 154.757 130.71 154.919C130.709 155.081 130.645 155.236 130.53 155.35C130.415 155.464 130.26 155.528 130.098 155.528ZM133.677 150.194C133.661 150.194 133.645 150.194 133.628 150.192C133.206 150.159 129.439 149.83 127.124 148.509C127.055 148.469 126.993 148.416 126.944 148.353C126.895 148.289 126.859 148.217 126.838 148.14C126.817 148.062 126.811 147.982 126.821 147.902C126.831 147.822 126.857 147.746 126.896 147.676C126.936 147.606 126.989 147.545 127.052 147.496C127.116 147.447 127.188 147.411 127.266 147.39C127.343 147.368 127.424 147.363 127.503 147.373C127.583 147.383 127.659 147.408 127.729 147.448C129.421 148.414 132.293 148.862 133.724 148.975C133.881 148.987 134.027 149.06 134.132 149.178C134.237 149.295 134.293 149.449 134.286 149.607C134.28 149.765 134.213 149.914 134.1 150.023C133.986 150.133 133.834 150.194 133.676 150.194L133.677 150.194ZM214.881 155.528C214.719 155.528 214.563 155.464 214.449 155.35C214.334 155.236 214.269 155.081 214.269 154.919C214.268 154.757 214.332 154.602 214.446 154.487C214.56 154.372 214.715 154.307 214.877 154.307L215.038 154.304C216.721 154.266 218.514 153.842 220.353 153.044C220.501 152.985 220.666 152.985 220.813 153.046C220.96 153.106 221.078 153.222 221.141 153.368C221.204 153.514 221.208 153.678 221.152 153.827C221.095 153.976 220.983 154.097 220.839 154.164C218.854 155.025 216.908 155.482 215.055 155.524L214.884 155.528H214.88H214.881ZM211.302 150.194C211.144 150.194 210.992 150.133 210.878 150.024C210.765 149.914 210.698 149.765 210.692 149.607C210.685 149.45 210.741 149.296 210.845 149.178C210.95 149.06 211.097 148.987 211.254 148.975C212.685 148.863 215.556 148.414 217.249 147.448C217.389 147.368 217.556 147.347 217.712 147.39C217.79 147.411 217.862 147.447 217.926 147.496C217.989 147.545 218.042 147.607 218.082 147.676C218.121 147.746 218.147 147.823 218.157 147.902C218.167 147.982 218.162 148.062 218.14 148.14C218.119 148.217 218.083 148.29 218.034 148.353C217.985 148.416 217.924 148.469 217.854 148.509C215.54 149.83 211.772 150.159 211.35 150.193C211.334 150.194 211.318 150.194 211.302 150.194L211.302 150.194ZM172.469 54.2613C166.401 51.8654 160.999 45.8773 157.563 38.9155C151.584 39.6388 146.422 40.3408 141.728 41.467C148.528 49.8419 160.187 54.24 170.568 54.301C168.242 54.5452 166.255 55.5432 164.912 57.4141C163.212 59.7764 162.528 62.6973 161.881 65.5357C164.741 65.554 167.576 64.3881 169.579 62.3494C171.581 60.3075 172.542 57.1181 172.469 54.2613ZM187.363 38.8147C184.937 44.0033 176.919 51.8014 172.469 54.2613C172.728 57.0418 173.607 60.1671 175.57 62.1571C177.529 64.1501 180.191 65.4381 182.968 65.7402C183.508 62.795 182.779 58.7479 180.578 56.7183C178.5 54.7985 175.536 54.1515 172.924 54.2369C183.27 53.6234 196.507 48.4349 202.926 41.3144V41.3113C198.302 40.2187 193.223 39.5259 187.363 38.8147Z" fill="black"/>
<path d="M141.727 42.0756C141.578 42.0761 141.433 42.0215 141.321 41.9221C141.209 41.8227 141.137 41.6855 141.119 41.5367C141.102 41.3879 141.14 41.2379 141.226 41.1152C141.312 40.9926 141.44 40.9058 141.586 40.8715C146.556 39.6812 152.168 38.9524 157.49 38.3084C157.82 38.2687 158.129 38.5062 158.169 38.841C158.179 38.9206 158.173 39.0013 158.151 39.0785C158.13 39.1557 158.093 39.2279 158.044 39.291C157.994 39.3541 157.933 39.4068 157.863 39.4462C157.793 39.4855 157.716 39.5107 157.637 39.5204C152.35 40.1604 146.778 40.8837 141.87 42.0591C141.824 42.0702 141.776 42.0758 141.728 42.0759L141.727 42.0756ZM164.469 25.4744C162.286 26.1382 159.55 23.6206 160.491 21.0464C161.275 18.9036 164.529 18.6554 165.987 20.4104C165.926 18.7058 165.512 13.4034 165.451 11.6988C172.254 12.1005 180.086 12.2332 183.864 7.74026C183.116 6.60702 182.189 5.60502 181.064 4.84505C178.863 3.35869 174.7 2.4339 172.048 2.36371C164.967 2.16837 162.199 4.97629 160.575 6.7465C158.604 8.90432 156.821 12.344 156.94 16.2537C157.145 22.8667 157.112 27.7818 157.374 34.6694C160.116 33.0194 163.562 29.7812 164.47 25.4744H164.469Z" fill="black"/>
<path d="M157.374 35.2798C157.216 35.2796 157.064 35.2184 156.951 35.1089C156.837 34.9995 156.77 34.8503 156.764 34.6926C156.617 30.8564 156.562 27.5684 156.508 24.3888C156.465 21.8397 156.421 19.2042 156.33 16.2724C156.223 12.7667 157.642 9.05174 160.125 6.33447C161.66 4.6601 164.518 1.53964 172.065 1.75329C174.884 1.82776 179.15 2.81511 181.405 4.33901C182.538 5.10387 183.536 6.13517 184.373 7.40361C184.446 7.51344 184.481 7.64378 184.473 7.77518C184.465 7.90658 184.416 8.03201 184.331 8.13276C180.543 12.6376 173.013 12.7264 166.092 12.3465C166.143 13.2883 166.237 14.6725 166.328 16.0203C166.445 17.7444 166.566 19.5274 166.597 20.3884C166.602 20.5158 166.566 20.6414 166.496 20.7477C166.426 20.854 166.324 20.9355 166.205 20.981C166.086 21.0264 165.955 21.0334 165.832 21.0009C165.709 20.9685 165.599 20.8983 165.518 20.8001C164.917 20.0768 163.863 19.7243 162.836 19.9025C161.97 20.0524 161.324 20.5456 161.064 21.2558C160.722 22.1919 160.968 23.2268 161.723 24.0243C162.457 24.8011 163.465 25.1423 164.292 24.8902C164.393 24.8594 164.501 24.8556 164.605 24.8791C164.708 24.9026 164.803 24.9527 164.882 25.0243C164.96 25.096 165.018 25.1867 165.05 25.2877C165.083 25.3887 165.088 25.4964 165.066 25.6001C163.913 31.0753 159.127 34.3263 157.688 35.1922C157.592 35.2502 157.482 35.2795 157.373 35.2795L157.374 35.2798ZM171.365 2.96466C164.872 2.96466 162.383 5.67888 161.025 7.15914C158.752 9.64628 157.453 13.0396 157.55 16.2351C157.641 19.1749 157.686 21.8149 157.729 24.368C157.778 27.2391 157.828 30.199 157.944 33.5688C159.638 32.3843 162.556 29.8914 163.659 26.1895C162.657 26.1657 161.622 25.6941 160.836 24.8631C159.756 23.7219 159.413 22.2163 159.918 20.8364C160.325 19.7215 161.338 18.9225 162.628 18.6994C163.56 18.5382 164.513 18.6945 165.308 19.1056C165.255 18.2364 165.182 17.1584 165.11 16.1024C164.993 14.3721 164.872 12.583 164.841 11.7199C164.838 11.6349 164.853 11.5502 164.884 11.4713C164.916 11.3923 164.964 11.3209 165.025 11.2615C165.086 11.2021 165.158 11.1561 165.238 11.1264C165.317 11.0967 165.402 11.0839 165.487 11.089C172.101 11.4797 179.427 11.5618 183.089 7.69143C182.4 6.73307 181.605 5.94686 180.722 5.35048C178.679 3.97033 174.62 3.04218 172.032 2.97351C171.81 2.96732 171.587 2.96427 171.365 2.96436V2.96466Z" fill="black"/>
<path d="M157.562 39.5259C157.406 39.5257 157.255 39.4655 157.142 39.3577C157.029 39.2499 156.961 39.1028 156.953 38.9466C156.879 37.495 156.817 36.1039 156.764 34.6926C156.759 34.5834 156.785 34.4752 156.837 34.3791C156.889 34.283 156.965 34.2026 157.059 34.1463C158.315 33.3906 162.321 30.6794 163.659 26.1901C162.657 26.1663 161.622 25.6947 160.836 24.8637C159.756 23.7225 159.413 22.2169 159.918 20.8371C160.325 19.7221 161.338 18.9231 162.628 18.7C163.56 18.5388 164.513 18.6945 165.308 19.1062C165.255 18.237 165.182 17.159 165.11 16.103C164.993 14.3727 164.872 12.5836 164.841 11.7205C164.838 11.6355 164.853 11.5508 164.884 11.4719C164.916 11.3929 164.964 11.3215 165.025 11.2621C165.085 11.2027 165.158 11.1567 165.238 11.127C165.317 11.0973 165.402 11.0845 165.487 11.0896C172.292 11.491 179.849 11.5663 183.397 7.34745C183.458 7.27529 183.536 7.21822 183.623 7.18065C183.71 7.14308 183.804 7.12601 183.899 7.13075C183.994 7.13631 184.086 7.16392 184.168 7.2114C184.251 7.25887 184.321 7.32489 184.373 7.40422C185.045 8.42209 185.6 9.56967 186.022 10.8149C186.869 13.3155 187.147 15.994 187.358 18.523C187.931 25.388 188.133 32.0303 187.974 38.8294C187.966 39.166 187.684 39.4459 187.349 39.4252C187.269 39.4233 187.19 39.4057 187.117 39.3733C187.044 39.341 186.977 39.2944 186.922 39.2364C186.867 39.1784 186.823 39.1101 186.794 39.0353C186.766 38.9606 186.752 38.8808 186.754 38.8007C186.911 32.0452 186.711 25.4457 186.142 18.6246C185.928 16.0691 185.67 13.5789 184.865 11.2065C184.579 10.353 184.21 9.52896 183.766 8.74592C179.829 12.6456 172.683 12.7084 166.093 12.3468C166.143 13.2886 166.237 14.6728 166.328 16.0206C166.445 17.7447 166.566 19.5277 166.597 20.3887C166.602 20.5161 166.567 20.6417 166.496 20.748C166.426 20.8543 166.324 20.9358 166.205 20.9813C166.086 21.0267 165.956 21.0337 165.832 21.0012C165.709 20.9688 165.599 20.8986 165.518 20.8004C164.917 20.0771 163.864 19.7246 162.836 19.9028C161.97 20.0527 161.324 20.5459 161.064 21.2561C160.722 22.1922 160.968 23.2271 161.723 24.0246C162.457 24.8014 163.466 25.1426 164.292 24.8905C164.394 24.8597 164.501 24.8559 164.605 24.8794C164.708 24.9029 164.804 24.953 164.882 25.0246C164.96 25.0963 165.018 25.187 165.051 25.288C165.083 25.389 165.089 25.4967 165.067 25.6004C163.985 30.7316 159.714 33.9094 157.997 35.0012C158.048 36.2861 158.105 37.5603 158.172 38.8846C158.176 38.9674 158.164 39.0502 158.135 39.1279C158.106 39.2056 158.062 39.2767 158.005 39.3367C157.948 39.3968 157.879 39.4445 157.803 39.4771C157.727 39.5097 157.645 39.5264 157.562 39.5262L157.562 39.5259Z" fill="black"/>
<path d="M176.527 34.8827C174.361 34.8827 171.605 33.8911 170.911 30.8345C170.893 30.7563 170.891 30.6754 170.905 30.5963C170.918 30.5173 170.947 30.4417 170.99 30.3739C171.033 30.306 171.088 30.2472 171.154 30.2009C171.219 30.1546 171.293 30.1216 171.371 30.1038C171.449 30.086 171.53 30.0838 171.609 30.0973C171.688 30.1108 171.764 30.1397 171.832 30.1824C171.9 30.2251 171.958 30.2808 172.005 30.3462C172.051 30.4117 172.084 30.4856 172.102 30.5637C172.82 33.7266 176.323 33.8008 177.493 33.5755C177.652 33.5454 177.817 33.5795 177.95 33.6704C178.084 33.7613 178.177 33.9016 178.207 34.0605C178.238 34.2196 178.204 34.3841 178.113 34.5181C178.022 34.6521 177.882 34.7445 177.723 34.775C177.328 34.8481 176.928 34.8841 176.528 34.8827H176.527ZM180.707 22.8349C180.55 22.8348 180.399 22.7743 180.286 22.666C180.172 22.5577 180.105 22.4099 180.097 22.2532L179.944 18.9802C179.941 18.9001 179.953 18.82 179.98 18.7446C180.007 18.6692 180.049 18.5998 180.103 18.5405C180.157 18.4813 180.222 18.4332 180.294 18.3991C180.367 18.3649 180.445 18.3454 180.526 18.3417C180.859 18.335 181.148 18.5861 181.164 18.9228L181.317 22.1958C181.321 22.2759 181.309 22.356 181.282 22.4314C181.254 22.5068 181.213 22.5762 181.159 22.6355C181.105 22.6948 181.04 22.7428 180.967 22.777C180.894 22.8111 180.816 22.8306 180.736 22.8343L180.707 22.8349ZM171.19 23.3678C171.034 23.3677 170.883 23.3072 170.769 23.1989C170.656 23.0906 170.589 22.9428 170.581 22.7861L170.428 19.5128C170.425 19.4327 170.437 19.3526 170.464 19.2772C170.491 19.2018 170.533 19.1324 170.587 19.0731C170.641 19.0138 170.706 18.9658 170.778 18.9316C170.851 18.8975 170.929 18.878 171.009 18.8743C171.345 18.8706 171.632 19.1187 171.648 19.4554L171.801 22.7287C171.805 22.8088 171.793 22.8889 171.765 22.9643C171.738 23.0397 171.697 23.1091 171.643 23.1684C171.589 23.2276 171.523 23.2757 171.451 23.3099C171.378 23.344 171.3 23.3635 171.22 23.3672L171.19 23.3678Z" fill="black"/>
<path d="M155.987 36.0111C155.847 36.0114 155.712 35.9635 155.603 35.8755C155.494 35.7875 155.418 35.6647 155.389 35.5278C155.36 35.3909 155.379 35.2481 155.443 35.1233C155.506 34.9986 155.611 34.8996 155.739 34.8428C157.949 33.8566 162.274 30.8345 163.659 26.1895C162.657 26.1657 161.622 25.6938 160.836 24.8631C159.756 23.7219 159.413 22.2166 159.918 20.8364C160.325 19.7215 161.338 18.9225 162.628 18.6994C163.56 18.5382 164.513 18.6945 165.308 19.1056C165.255 18.233 165.182 17.1492 165.11 16.0874C164.993 14.3636 164.872 12.5809 164.841 11.7202C164.838 11.6352 164.852 11.5505 164.884 11.4715C164.916 11.3926 164.963 11.3211 165.024 11.2617C165.085 11.2023 165.158 11.1562 165.237 11.1265C165.317 11.0967 165.402 11.084 165.487 11.089C171.867 11.4647 178.99 11.5709 182.757 8.03234C184.609 6.29235 185.515 3.83939 185.527 0.532763C185.528 0.371241 185.592 0.216525 185.707 0.102512C185.821 -0.0115021 185.976 -0.0755167 186.137 -0.0755157H186.14C186.22 -0.0752357 186.299 -0.0591721 186.373 -0.0282368C186.447 0.00269858 186.514 0.0478987 186.571 0.10478C186.627 0.161661 186.672 0.229108 186.702 0.303275C186.733 0.377442 186.748 0.456873 186.748 0.537034C186.735 4.14643 185.674 6.96747 183.593 8.92233C179.613 12.6617 172.55 12.7014 166.092 12.3465C166.143 13.2853 166.237 14.663 166.328 16.005C166.445 17.7355 166.566 19.5247 166.597 20.3881C166.602 20.5155 166.567 20.6411 166.496 20.7474C166.426 20.8537 166.324 20.9352 166.205 20.9806C166.086 21.0261 165.956 21.033 165.832 21.0006C165.709 20.9682 165.599 20.898 165.518 20.7998C164.917 20.0765 163.864 19.7255 162.836 19.9022C161.97 20.0521 161.324 20.5453 161.064 21.2555C160.722 22.1916 160.968 23.2265 161.723 24.024C162.458 24.8014 163.467 25.1405 164.292 24.8899C164.393 24.8591 164.501 24.8552 164.604 24.8787C164.708 24.9021 164.803 24.9521 164.882 25.0237C164.96 25.0954 165.018 25.1861 165.051 25.2871C165.083 25.3881 165.089 25.4957 165.067 25.5995C163.886 31.2032 158.774 34.8254 156.236 35.9574C156.157 35.9923 156.073 36.0105 155.987 36.0108V36.0111Z" fill="black"/>
</g>
<defs>
<clipPath id="clip0_16_3">
<rect width="268" height="191" fill="white"/>
</clipPath>
</defs>
</svg>
